<svg xmlns="http://www.w3.org/2000/svg" width="442.17" height="350.4" viewBox="0 0 442.17 350.4"><g id="Layer_2" data-name="Layer 2"><g id="Layer_13" data-name="Layer 13"><text transform="translate(156.92 346.15)" style="font-size:17px;font-family:MyriadPro-Regular, Myriad Pro">number of pa<tspan x="96.1" y="0" style="letter-spacing:0.02395450367647059em">r</tspan><tspan x="102.07" y="0">ts pla</tspan><tspan x="139.91" y="0" style="letter-spacing:-0.0059742647058823525em">c</tspan><tspan x="147.42" y="0" style="letter-spacing:-0.000028722426470588235em">ed</tspan></text><text transform="translate(14.23 231.94) rotate(-90)" style="font-size:17px;font-family:MyriadPro-Regular, Myriad Pro">running time (se<tspan x="116.3" y="0" style="letter-spacing:-0.00603170955882353em">c</tspan><tspan x="123.81" y="0">onds)</tspan></text></g><g id="Layer_14" data-name="Layer 14"><rect x="47.1" y="0.5" width="394.57" height="284.24" style="fill:#f5f5f9"/><line x1="57.16" y1="284.74" x2="57.16" y2="288.24"/><line x1="57.16" y1="284.74" x2="57.16" y2="288.24" style="fill:none;stroke:#000;stroke-linejoin:round;stroke-width:0.800000011920929px"/><line x1="126.49" y1="284.74" x2="126.49" y2="288.24"/><line x1="126.49" y1="284.74" x2="126.49" y2="288.24" style="fill:none;stroke:#000;stroke-linejoin:round;stroke-width:0.800000011920929px"/><line x1="195.83" y1="284.74" x2="195.83" y2="288.24"/><line x1="195.83" y1="284.74" x2="195.83" y2="288.24" style="fill:none;stroke:#000;stroke-linejoin:round;stroke-width:0.800000011920929px"/><line x1="265.17" y1="284.74" x2="265.17" y2="288.24"/><line x1="265.17" y1="284.74" x2="265.17" y2="288.24" style="fill:none;stroke:#000;stroke-linejoin:round;stroke-width:0.800000011920929px"/><line x1="334.5" y1="284.74" x2="334.5" y2="288.24"/><line x1="334.5" y1="284.74" x2="334.5" y2="288.24" style="fill:none;stroke:#000;stroke-linejoin:round;stroke-width:0.800000011920929px"/><line x1="47.1" y1="272.85" x2="43.44" y2="272.85"/><line x1="47.1" y1="272.85" x2="43.44" y2="272.85" style="fill:none;stroke:#000;stroke-linejoin:round;stroke-width:0.800000011920929px"/><line x1="47.1" y1="239.38" x2="43.44" y2="239.38"/><line x1="47.1" y1="239.38" x2="43.44" y2="239.38" style="fill:none;stroke:#000;stroke-linejoin:round;stroke-width:0.800000011920929px"/><line x1="47.1" y1="205.91" x2="43.44" y2="205.91"/><line x1="47.1" y1="205.91" x2="43.44" y2="205.91" style="fill:none;stroke:#000;stroke-linejoin:round;stroke-width:0.800000011920929px"/><line x1="47.1" y1="172.44" x2="43.44" y2="172.44"/><line x1="47.1" y1="172.44" x2="43.44" y2="172.44" style="fill:none;stroke:#000;stroke-linejoin:round;stroke-width:0.800000011920929px"/><line x1="47.1" y1="138.97" x2="43.44" y2="138.97"/><line x1="47.1" y1="138.97" x2="43.44" y2="138.97" style="fill:none;stroke:#000;stroke-linejoin:round;stroke-width:0.800000011920929px"/><line x1="47.1" y1="105.5" x2="43.44" y2="105.5"/><line x1="47.1" y1="105.5" x2="43.44" y2="105.5" style="fill:none;stroke:#000;stroke-linejoin:round;stroke-width:0.800000011920929px"/><line x1="47.1" y1="72.04" x2="43.44" y2="72.04"/><line x1="47.1" y1="72.04" x2="43.44" y2="72.04" style="fill:none;stroke:#000;stroke-linejoin:round;stroke-width:0.800000011920929px"/><line x1="47.1" y1="38.57" x2="43.44" y2="38.57"/><line x1="47.1" y1="38.57" x2="43.44" y2="38.57" style="fill:none;stroke:#000;stroke-linejoin:round;stroke-width:0.800000011920929px"/><line x1="47.11" y1="139.13" x2="49.61" y2="139.13" style="fill:none;stroke:#b6b6c6;stroke-miterlimit:10"/><line x1="54.66" y1="139.13" x2="436.57" y2="139.13" style="fill:none;stroke:#b6b6c6;stroke-miterlimit:10;stroke-dasharray:5.058357238769531,5.058357238769531"/><line x1="439.1" y1="139.13" x2="441.6" y2="139.13" style="fill:none;stroke:#b6b6c6;stroke-miterlimit:10"/><line x1="47.17" y1="172.43" x2="49.67" y2="172.43" style="fill:none;stroke:#b6b6c6;stroke-miterlimit:10"/><line x1="54.73" y1="172.43" x2="436.64" y2="172.43" style="fill:none;stroke:#b6b6c6;stroke-miterlimit:10;stroke-dasharray:5.058357238769531,5.058357238769531"/><line x1="439.17" y1="172.43" x2="441.67" y2="172.43" style="fill:none;stroke:#b6b6c6;stroke-miterlimit:10"/><line x1="47.11" y1="205.54" x2="49.61" y2="205.54" style="fill:none;stroke:#b6b6c6;stroke-miterlimit:10"/><line x1="54.66" y1="205.54" x2="436.57" y2="205.54" style="fill:none;stroke:#b6b6c6;stroke-miterlimit:10;stroke-dasharray:5.058357238769531,5.058357238769531"/><line x1="439.1" y1="205.54" x2="441.6" y2="205.54" style="fill:none;stroke:#b6b6c6;stroke-miterlimit:10"/><line x1="47.17" y1="238.84" x2="49.67" y2="238.84" style="fill:none;stroke:#b6b6c6;stroke-miterlimit:10"/><line x1="54.73" y1="238.84" x2="436.64" y2="238.84" style="fill:none;stroke:#b6b6c6;stroke-miterlimit:10;stroke-dasharray:5.058357238769531,5.058357238769531"/><line x1="439.17" y1="238.84" x2="441.67" y2="238.84" style="fill:none;stroke:#b6b6c6;stroke-miterlimit:10"/><line x1="47.14" y1="39.09" x2="49.64" y2="39.09" style="fill:none;stroke:#b6b6c6;stroke-miterlimit:10"/><line x1="54.7" y1="39.09" x2="436.6" y2="39.09" style="fill:none;stroke:#b6b6c6;stroke-miterlimit:10;stroke-dasharray:5.058357238769531,5.058357238769531"/><line x1="439.13" y1="39.09" x2="441.63" y2="39.09" style="fill:none;stroke:#b6b6c6;stroke-miterlimit:10"/><line x1="47.07" y1="72.2" x2="49.57" y2="72.2" style="fill:none;stroke:#b6b6c6;stroke-miterlimit:10"/><line x1="54.63" y1="72.2" x2="436.54" y2="72.2" style="fill:none;stroke:#b6b6c6;stroke-miterlimit:10;stroke-dasharray:5.058357238769531,5.058357238769531"/><line x1="439.07" y1="72.2" x2="441.57" y2="72.2" style="fill:none;stroke:#b6b6c6;stroke-miterlimit:10"/><line x1="47.14" y1="105.5" x2="49.64" y2="105.5" style="fill:none;stroke:#b6b6c6;stroke-miterlimit:10"/><line x1="54.7" y1="105.5" x2="436.6" y2="105.5" style="fill:none;stroke:#b6b6c6;stroke-miterlimit:10;stroke-dasharray:5.058357238769531,5.058357238769531"/><line x1="439.13" y1="105.5" x2="441.63" y2="105.5" style="fill:none;stroke:#b6b6c6;stroke-miterlimit:10"/><polyline points="64.09 272.64 67.56 272.38 71.02 272.08 74.49 271.88 77.96 271.3 81.42 270.72 84.89 270.35 88.36 269.81 91.82 269.19 95.29 268.41 98.76 267.59 102.22 266.91 105.69 266.18 109.16 265.14 112.63 264.62 116.09 263.78 119.56 262.73 123.03 261.6 126.49 260.51 129.96 259.59 133.43 258.24 136.89 257.32 140.36 256.59 143.83 255.27 147.29 253.74 150.76 252.27 154.23 250.87 157.69 249.92 161.16 248.19 164.63 246.47 168.09 245.26 171.56 243.55 175.03 241.85 178.5 240.54 181.96 237.63 185.43 235.44 188.9 231.04 192.36 227.92 195.83 225.14 199.3 224.03 202.76 221.75 206.23 220.03 209.7 217.74 213.16 215.16 216.63 212.62 220.1 210.79 223.56 205.48 227.03 202.23 230.5 199.89 233.96 197.88 237.43 193.18 240.9 190.8 244.36 187.8 247.83 186.27 251.3 183.18 254.76 181.38 258.23 178.5 261.7 176.18 265.17 172.86 268.63 169.33 272.1 166.35 275.57 164.13 279.03 161.76 282.5 158.68 285.97 155.41 289.43 150.51 292.9 147.84 296.37 145.1 299.83 141.57 303.3 138.6 306.77 134.6 310.23 131.12 313.7 127.95 317.17 124.79 320.63 120.19 324.1 117.32 327.57 113.91 331.04 111.34 334.5 108.32 337.97 105.14 341.44 102.82 344.9 99.04 348.37 95.67 351.84 90.83 355.3 87.82 358.77 85.17 362.24 81.38 365.7 78.35 369.17 75.07 372.64 71.4 376.1 68.9 379.57 64.16 383.04 59.56 386.5 56.8 389.97 52.05 393.44 47.72 396.9 43.02 400.37 36.83 403.84 30.72" style="fill:none;stroke:#ff8742;stroke-linecap:round;stroke-linejoin:round;stroke-width:2px"/><polyline points="64.09 272.64 67.56 272.43 71.02 272.21 74.49 272.12 77.96 271.64 81.42 271.28 84.89 271.21 88.36 270.83 91.82 270.43 95.29 270.02 98.76 269.57 102.22 269.26 105.69 268.86 109.16 268.27 112.63 268.13 116.09 267.49 119.56 266.97 123.03 266.25 126.49 265.7 129.96 265.21 133.43 264.43 136.89 263.98 140.36 263.57 143.83 262.63 147.29 261.95 150.76 260.92 154.23 260.55 157.69 260.01 161.16 258.97 164.63 257.95 168.09 257.91 171.56 256.83 175.03 256.05 178.5 255.4 181.96 253.39 185.43 252.64 188.9 249.49 192.36 248.88 195.83 247.91 199.3 248.14 202.76 247.07 206.23 246.33 209.7 244.79 213.16 243.56 216.63 242.14 220.1 241.5 223.56 237.68 227.03 236.94 230.5 236.15 233.96 235.19 237.43 231.79 240.9 231.44 244.36 229.58 247.83 229.23 251.3 227.09 254.76 226.73 258.23 224.96 261.7 224.37 265.17 221.73 268.63 219.62 272.1 218.61 275.57 217.21 279.03 216.02 282.5 214.25 285.97 212.53 289.43 209.21 292.9 208.91 296.37 206.57 299.83 205.01 303.3 203.85 306.77 201.28 310.23 199.14 313.7 197.16 317.17 195.35 320.63 192.97 324.1 192.1 327.57 189.63 331.04 188.27 334.5 186.67 337.97 184.5 341.44 183.57 344.9 181.21 348.37 179.16 351.84 176.83 355.3 175.22 358.77 172.89 362.24 171.89 365.7 169.33 369.17 168.12 372.64 165.94 376.1 163.67 379.57 159.77 383.04 157.04 386.5 154.56 389.97 152.99 393.44 150.47 396.9 149.08 400.37 144.44 403.84 140.96" style="fill:none;stroke:#2dc9c2;stroke-linecap:round;stroke-linejoin:round;stroke-width:2px"/><line x1="47.1" y1="284.74" x2="47.1" y2="0.5" style="fill:none;stroke:#000;stroke-linecap:square;stroke-miterlimit:10"/><line x1="47.1" y1="284.74" x2="441.67" y2="284.74" style="fill:none;stroke:#000;stroke-linecap:square;stroke-miterlimit:10"/><line x1="334.5" y1="284.74" x2="334.5" y2="288.24"/><line x1="403.84" y1="284.74" x2="403.84" y2="288.24"/><line x1="403.84" y1="284.74" x2="403.84" y2="288.24" style="fill:none;stroke:#000;stroke-linejoin:round;stroke-width:0.800000011920929px"/><text transform="translate(344.17 22.86)" style="font-size:13.822150230407715px;fill:#ff8742;font-family:MyriadPro-Regular, Myriad Pro">without cache</text><text transform="translate(363.94 135.48)" style="font-size:13.822150230407715px;fill:#2dc9c2;font-family:MyriadPro-Regular, Myriad Pro">with cache</text><text transform="translate(30.3 276.77)" style="font-size:17px;font-family:MyriadPro-Regular, Myriad Pro">0</text><text transform="translate(30.3 245.84)" style="font-size:17px;font-family:MyriadPro-Regular, Myriad Pro">1</text><text transform="translate(30.3 209.35)" style="font-size:17px;font-family:MyriadPro-Regular, Myriad Pro">2</text><text transform="translate(30.3 178.42)" style="font-size:17px;font-family:MyriadPro-Regular, Myriad Pro">3</text><text transform="translate(30.3 144.83)" style="font-size:17px;font-family:MyriadPro-Regular, Myriad Pro">4</text><text transform="translate(30.3 113.9)" style="font-size:17px;font-family:MyriadPro-Regular, Myriad Pro">5</text><text transform="translate(30.3 77.41)" style="font-size:17px;font-family:MyriadPro-Regular, Myriad Pro">6</text><text transform="translate(30.3 46.48)" style="font-size:17px;font-family:MyriadPro-Regular, Myriad Pro">7</text><text transform="translate(52.8 304.08)" style="font-size:17px;font-family:MyriadPro-Regular, Myriad Pro">0</text><text transform="translate(117.77 304.08)" style="font-size:17px;font-family:MyriadPro-Regular, Myriad Pro">20</text><text transform="translate(187.11 304.08)" style="font-size:17px;font-family:MyriadPro-Regular, Myriad Pro">40</text><text transform="translate(256.44 304.08)" style="font-size:17px;font-family:MyriadPro-Regular, Myriad Pro">60</text><text transform="translate(325.78 304.08)" style="font-size:17px;font-family:MyriadPro-Regular, Myriad Pro">80</text><text transform="translate(390.76 304.08)" style="font-size:17px;font-family:MyriadPro-Regular, Myriad Pro">100</text><line x1="89.4" y1="284.74" x2="89.4" y2="278.74" style="fill:none;stroke:#7a99ff;stroke-miterlimit:10"/><line x1="89.4" y1="273.82" x2="89.4" y2="8.96" style="fill:none;stroke:#7a99ff;stroke-miterlimit:10;stroke-dasharray:11.793725967407227,4.914052486419678"/><line x1="89.4" y1="6.5" x2="89.4" y2="0.5" style="fill:none;stroke:#7a99ff;stroke-miterlimit:10"/><text transform="translate(96.66 51.76)" style="font-size:13.822150230407715px;fill:#7a99ff;font-family:MyriadPro-Regular, Myriad Pro"><tspan style="letter-spacing:-0.00798367552518961em">a<tspan x="6.55" y="0" style="letter-spacing:-0.009997257405436546em">v</tspan><tspan x="13.06" y="0" style="letter-spacing:-0.00003532599789906907em">g # of pa</tspan><tspan x="62.6" y="0" style="letter-spacing:0.02402167857136697em">r</tspan><tspan x="67.45" y="0" style="letter-spacing:-0.00003532599789906907em">ts </tspan></tspan><tspan x="0" y="16.59">per user desi</tspan><tspan x="73.13" y="16.59" style="letter-spacing:-0.006005419642841742em">g</tspan><tspan x="80.78" y="16.59" style="letter-spacing:-0.00003532599789906907em">n</tspan></text><line x1="309.28" y1="284.74" x2="309.28" y2="278.74" style="fill:none;stroke:#ff86ff;stroke-miterlimit:10"/><line x1="309.28" y1="273.82" x2="309.28" y2="8.96" style="fill:none;stroke:#ff86ff;stroke-miterlimit:10;stroke-dasharray:11.793725967407227,4.914052486419678"/><line x1="309.28" y1="6.5" x2="309.28" y2="0.5" style="fill:none;stroke:#ff86ff;stroke-miterlimit:10"/><text transform="translate(219.63 51.76)" style="font-size:13.822150230407715px;fill:#ff86ff;font-family:MyriadPro-Regular, Myriad Pro">max # of pa<tspan x="66.4" y="0" style="letter-spacing:0.023986352573467897em">r</tspan><tspan x="71.25" y="0" style="letter-spacing:-0.00003532599789906907em">ts </tspan><tspan x="-4.22" y="16.59">per user desi</tspan><tspan x="68.92" y="16.59" style="letter-spacing:-0.006005419642841742em">g</tspan><tspan x="76.56" y="16.59" style="letter-spacing:-0.00003532599789906907em">n</tspan></text></g></g></svg>