<?xml version="1.0" encoding="utf-8"?>
<!-- Generator: Adobe Illustrator 25.1.0, SVG Export Plug-In . SVG Version: 6.00 Build 0)  -->
<svg version="1.1" id="Layer_1" xmlns="http://www.w3.org/2000/svg" xmlns:xlink="http://www.w3.org/1999/xlink" x="0px" y="0px"
	 viewBox="0 0 442.2 350.4" style="enable-background:new 0 0 442.2 350.4;" xml:space="preserve">
<style type="text/css">
	.st0{enable-background:new    ;}
	.st1{fill:#F5F5F9;}
	.st2{fill:none;}
	.st3{fill:none;stroke:#000000;stroke-width:0.8;stroke-linejoin:round;}
	.st4{fill:none;stroke:#B6B6C6;stroke-miterlimit:10;}
	.st5{fill:none;stroke:#B6B6C6;stroke-miterlimit:10;stroke-dasharray:5.0584,5.0584;}
	.st6{fill:none;stroke:#FF8742;stroke-width:2;stroke-linecap:round;stroke-linejoin:round;}
	.st7{fill:none;stroke:#2DC9C2;stroke-width:2;stroke-linecap:round;stroke-linejoin:round;}
	.st8{fill:none;stroke:#000000;stroke-linecap:square;stroke-miterlimit:10;}
	.st9{fill:#FF8742;}
	.st10{fill:#2DC9C2;}
	.st11{fill:none;stroke:#7A99FF;stroke-miterlimit:10;}
	.st12{fill:none;stroke:#7A99FF;stroke-miterlimit:10;stroke-dasharray:11.7937,4.9141;}
	.st13{fill:#7A99FF;}
	.st14{fill:none;stroke:#FF86FF;stroke-miterlimit:10;}
	.st15{fill:none;stroke:#FF86FF;stroke-miterlimit:10;stroke-dasharray:11.7937,4.9141;}
	.st16{fill:#FF86FF;}
</style>
<g id="Layer_2_1_">
	<g id="Layer_13">
		<g class="st0">
			<path d="M158.2,340.2c0-0.9,0-1.5-0.1-2.2h1.3l0.1,1.4h0c0.4-0.8,1.4-1.5,2.7-1.5c1.1,0,2.9,0.7,2.9,3.5v4.9h-1.5v-4.7
				c0-1.3-0.5-2.4-1.9-2.4c-1,0-1.8,0.7-2,1.5c-0.1,0.2-0.1,0.4-0.1,0.7v4.9h-1.5V340.2z"/>
			<path d="M174.5,343.9c0,0.9,0,1.6,0.1,2.2h-1.3l-0.1-1.3h0c-0.4,0.7-1.3,1.5-2.7,1.5c-1.3,0-2.8-0.7-2.8-3.6v-4.8h1.5v4.6
				c0,1.6,0.5,2.6,1.8,2.6c1,0,1.7-0.7,2-1.4c0.1-0.2,0.1-0.5,0.1-0.8v-5h1.5V343.9z"/>
			<path d="M177,340.2c0-0.9,0-1.5-0.1-2.2h1.3l0.1,1.3h0.1c0.5-0.8,1.2-1.5,2.6-1.5c1.1,0,2,0.7,2.3,1.6h0c0.3-0.5,0.6-0.8,0.9-1.1
				c0.5-0.4,1-0.6,1.8-0.6c1.1,0,2.7,0.7,2.7,3.6v4.8h-1.5v-4.7c0-1.6-0.6-2.5-1.8-2.5c-0.9,0-1.5,0.6-1.8,1.4
				c-0.1,0.2-0.1,0.5-0.1,0.7v5.1h-1.5v-4.9c0-1.3-0.6-2.3-1.7-2.3c-0.9,0-1.6,0.7-1.9,1.5c-0.1,0.2-0.1,0.5-0.1,0.7v5H177V340.2z"
				/>
			<path d="M191.1,346.2c0-0.6,0.1-1.4,0.1-2.1v-9.9h1.5v5.2h0c0.5-0.9,1.5-1.5,2.8-1.5c2,0,3.5,1.7,3.5,4.2c0,2.9-1.9,4.4-3.7,4.4
				c-1.2,0-2.1-0.5-2.8-1.5h-0.1l-0.1,1.4H191.1z M192.6,342.9c0,0.2,0,0.4,0.1,0.5c0.3,1,1.2,1.8,2.2,1.8c1.6,0,2.5-1.3,2.5-3.2
				c0-1.6-0.9-3.1-2.4-3.1c-1,0-2,0.7-2.3,1.8c0,0.2-0.1,0.4-0.1,0.6V342.9z"/>
			<path d="M201.6,342.3c0,2,1.3,2.9,2.8,2.9c1.1,0,1.7-0.2,2.3-0.4l0.3,1.1c-0.5,0.2-1.4,0.5-2.7,0.5c-2.5,0-4-1.7-4-4.1
				s1.5-4.4,3.9-4.4c2.7,0,3.4,2.4,3.4,3.9c0,0.3,0,0.5-0.1,0.7H201.6z M206,341.2c0-1-0.4-2.4-2.1-2.4c-1.5,0-2.2,1.4-2.3,2.4H206z
				"/>
			<path d="M209.3,340.5c0-1,0-1.8-0.1-2.6h1.3l0.1,1.6h0.1c0.4-1.1,1.3-1.8,2.3-1.8c0.2,0,0.3,0,0.4,0.1v1.4
				c-0.2,0-0.3-0.1-0.5-0.1c-1.1,0-1.8,0.8-2,1.9c0,0.2-0.1,0.4-0.1,0.7v4.4h-1.5V340.5z"/>
			<path d="M225.9,342c0,3-2.1,4.4-4.1,4.4c-2.2,0-3.9-1.6-3.9-4.2c0-2.8,1.8-4.4,4.1-4.4C224.3,337.7,225.9,339.5,225.9,342z
				 M219.4,342.1c0,1.8,1,3.2,2.5,3.2c1.4,0,2.5-1.3,2.5-3.2c0-1.4-0.7-3.2-2.5-3.2C220.2,338.9,219.4,340.5,219.4,342.1z"/>
			<path d="M228,346.2v-7.1h-1.2v-1.1h1.2v-0.4c0-1.2,0.3-2.2,1-2.9c0.6-0.5,1.3-0.8,2-0.8c0.5,0,1,0.1,1.3,0.2l-0.2,1.2
				c-0.2-0.1-0.5-0.2-1-0.2c-1.3,0-1.6,1.1-1.6,2.4v0.4h2v1.1h-2v7.1H228z"/>
			<path d="M236.4,340.6c0-1.1,0-1.9-0.1-2.7h1.3l0.1,1.4h0c0.6-1,1.6-1.6,2.9-1.6c2,0,3.5,1.7,3.5,4.2c0,3-1.8,4.4-3.7,4.4
				c-1.1,0-2-0.5-2.5-1.3h0v4.5h-1.5V340.6z M237.9,342.8c0,0.2,0,0.4,0.1,0.6c0.3,1,1.2,1.8,2.2,1.8c1.6,0,2.5-1.3,2.5-3.2
				c0-1.6-0.9-3.1-2.4-3.1c-1,0-2,0.7-2.3,1.9c-0.1,0.2-0.1,0.4-0.1,0.6V342.8z"/>
			<path d="M250.6,346.2l-0.1-1h-0.1c-0.5,0.6-1.3,1.2-2.5,1.2c-1.7,0-2.5-1.2-2.5-2.4c0-2,1.8-3.1,4.9-3.1v-0.2
				c0-0.7-0.2-1.9-1.9-1.9c-0.8,0-1.6,0.2-2.1,0.6l-0.3-1c0.7-0.4,1.7-0.7,2.7-0.7c2.5,0,3.1,1.7,3.1,3.4v3.1c0,0.7,0,1.4,0.1,2
				H250.6z M250.4,342c-1.6,0-3.5,0.3-3.5,1.9c0,1,0.6,1.4,1.4,1.4c1.1,0,1.8-0.7,2-1.4c0.1-0.2,0.1-0.3,0.1-0.5V342z"/>
		</g>
		<g class="st0">
			<path d="M254.3,340.5c0-1,0-1.8-0.1-2.6h1.3l0.1,1.6h0.1c0.4-1.1,1.3-1.8,2.3-1.8c0.2,0,0.3,0,0.4,0.1v1.4
				c-0.2,0-0.3-0.1-0.5-0.1c-1.1,0-1.8,0.8-2,1.9c0,0.2-0.1,0.4-0.1,0.7v4.4h-1.5V340.5z"/>
		</g>
		<g class="st0">
			<path d="M262,335.6v2.4h2.1v1.1H262v4.4c0,1,0.3,1.6,1.1,1.6c0.4,0,0.7-0.1,0.9-0.1l0.1,1.1c-0.3,0.1-0.7,0.2-1.3,0.2
				c-0.7,0-1.3-0.2-1.6-0.6c-0.4-0.4-0.6-1.2-0.6-2.1v-4.5h-1.3v-1.1h1.3v-2L262,335.6z"/>
			<path d="M265.7,344.6c0.4,0.3,1.2,0.6,2,0.6c1.1,0,1.6-0.5,1.6-1.2c0-0.7-0.4-1.1-1.5-1.5c-1.5-0.5-2.2-1.3-2.2-2.3
				c0-1.3,1.1-2.4,2.8-2.4c0.8,0,1.6,0.2,2,0.5l-0.4,1.1c-0.3-0.2-0.9-0.5-1.7-0.5c-0.9,0-1.4,0.5-1.4,1.1c0,0.7,0.5,1,1.6,1.4
				c1.4,0.5,2.2,1.3,2.2,2.5c0,1.4-1.1,2.5-3.1,2.5c-0.9,0-1.7-0.2-2.3-0.6L265.7,344.6z"/>
			<path d="M276.2,340.6c0-1.1,0-1.9-0.1-2.7h1.3l0.1,1.4h0c0.6-1,1.6-1.6,2.9-1.6c2,0,3.5,1.7,3.5,4.2c0,3-1.8,4.4-3.7,4.4
				c-1.1,0-2-0.5-2.5-1.3h0v4.5h-1.5V340.6z M277.7,342.8c0,0.2,0,0.4,0.1,0.6c0.3,1,1.2,1.8,2.2,1.8c1.6,0,2.5-1.3,2.5-3.2
				c0-1.6-0.9-3.1-2.4-3.1c-1,0-2,0.7-2.3,1.9c-0.1,0.2-0.1,0.4-0.1,0.6V342.8z"/>
			<path d="M285.9,334.1h1.5v12.1h-1.5V334.1z"/>
			<path d="M294.4,346.2l-0.1-1h-0.1c-0.5,0.6-1.3,1.2-2.5,1.2c-1.7,0-2.5-1.2-2.5-2.4c0-2,1.8-3.1,4.9-3.1v-0.2
				c0-0.7-0.2-1.9-1.9-1.9c-0.8,0-1.6,0.2-2.1,0.6l-0.3-1c0.7-0.4,1.7-0.7,2.7-0.7c2.5,0,3.1,1.7,3.1,3.4v3.1c0,0.7,0,1.4,0.1,2
				H294.4z M294.2,342c-1.6,0-3.5,0.3-3.5,1.9c0,1,0.6,1.4,1.4,1.4c1.1,0,1.8-0.7,2-1.4c0.1-0.2,0.1-0.3,0.1-0.5V342z"/>
		</g>
		<g class="st0">
			<path d="M303.9,345.8c-0.4,0.2-1.3,0.5-2.4,0.5c-2.5,0-4.1-1.7-4.1-4.2c0-2.5,1.7-4.4,4.4-4.4c0.9,0,1.7,0.2,2.1,0.4l-0.3,1.2
				c-0.4-0.2-0.9-0.4-1.7-0.4c-1.9,0-2.9,1.4-2.9,3.1c0,1.9,1.2,3.1,2.9,3.1c0.8,0,1.4-0.2,1.8-0.4L303.9,345.8z"/>
		</g>
		<g class="st0">
			<path d="M306.4,342.3c0,2,1.3,2.9,2.8,2.9c1.1,0,1.7-0.2,2.3-0.4l0.3,1.1c-0.5,0.2-1.4,0.5-2.7,0.5c-2.5,0-4-1.7-4-4.1
				s1.5-4.4,3.9-4.4c2.7,0,3.4,2.4,3.4,3.9c0,0.3,0,0.5-0.1,0.7H306.4z M310.8,341.2c0-1-0.4-2.4-2.1-2.4c-1.5,0-2.2,1.4-2.3,2.4
				H310.8z"/>
			<path d="M321.2,334.1v9.9c0,0.7,0,1.6,0.1,2.1h-1.3l-0.1-1.4h0c-0.5,0.9-1.5,1.6-2.8,1.6c-2,0-3.5-1.7-3.5-4.2
				c0-2.7,1.7-4.4,3.7-4.4c1.3,0,2.1,0.6,2.5,1.3h0v-4.9H321.2z M319.7,341.3c0-0.2,0-0.4-0.1-0.6c-0.2-1-1-1.7-2.2-1.7
				c-1.5,0-2.5,1.4-2.5,3.2c0,1.7,0.8,3,2.4,3c1,0,1.9-0.7,2.2-1.8c0.1-0.2,0.1-0.4,0.1-0.6V341.3z"/>
		</g>
		<g class="st0">
			<path d="M8.6,230.7c-1,0-1.8,0-2.6,0.1v-1.3l1.6-0.1v-0.1c-1.1-0.4-1.8-1.3-1.8-2.3c0-0.2,0-0.3,0.1-0.4h1.4
				c0,0.2-0.1,0.3-0.1,0.5c0,1.1,0.8,1.8,1.9,2c0.2,0,0.4,0.1,0.7,0.1h4.4v1.5H8.6z"/>
			<path d="M12,218.3c0.9,0,1.6,0,2.2-0.1v1.3l-1.3,0.1v0c0.7,0.4,1.5,1.3,1.5,2.7c0,1.3-0.7,2.8-3.6,2.8H6v-1.5h4.6
				c1.6,0,2.6-0.5,2.6-1.8c0-1-0.7-1.7-1.4-2c-0.2-0.1-0.5-0.1-0.8-0.1H6v-1.5H12z"/>
			<path d="M8.2,215.8c-0.9,0-1.5,0-2.2,0.1v-1.3l1.4-0.1v0c-0.8-0.4-1.5-1.4-1.5-2.7c0-1.1,0.7-2.9,3.5-2.9h4.9v1.5H9.5
				c-1.3,0-2.4,0.5-2.4,1.9c0,1,0.7,1.8,1.5,2c0.2,0.1,0.4,0.1,0.7,0.1h4.9v1.5H8.2z"/>
			<path d="M8.2,206.3c-0.9,0-1.5,0-2.2,0.1v-1.3l1.4-0.1v0c-0.8-0.4-1.5-1.4-1.5-2.7c0-1.1,0.7-2.9,3.5-2.9h4.9v1.5H9.5
				c-1.3,0-2.4,0.5-2.4,1.9c0,1,0.7,1.8,1.5,2c0.2,0.1,0.4,0.1,0.7,0.1h4.9v1.5H8.2z"/>
			<path d="M3.7,195.2c0.5,0,0.9,0.4,0.9,1c0,0.5-0.4,0.9-0.9,0.9c-0.5,0-0.9-0.4-0.9-0.9C2.8,195.6,3.2,195.2,3.7,195.2z
				 M14.2,196.9H6v-1.5h8.2V196.9z"/>
			<path d="M8.2,192.9c-0.9,0-1.5,0-2.2,0.1v-1.3l1.4-0.1v0c-0.8-0.4-1.5-1.4-1.5-2.7c0-1.1,0.7-2.9,3.5-2.9h4.9v1.5H9.5
				c-1.3,0-2.4,0.5-2.4,1.9c0,1,0.7,1.8,1.5,2c0.2,0.1,0.4,0.1,0.7,0.1h4.9v1.5H8.2z"/>
			<path d="M6,176.4c0.6,0,1.3,0.1,2.3,0.1H13c1.9,0,3,0.4,3.8,1.2c0.7,0.8,1,2,1,3c0,1-0.2,2.1-0.7,2.7L16,183
				c0.3-0.5,0.6-1.4,0.6-2.4c0-1.5-0.8-2.7-2.9-2.7h-0.9v0c0.8,0.5,1.4,1.3,1.4,2.6c0,2-1.7,3.5-4,3.5c-2.8,0-4.4-1.8-4.4-3.7
				c0-1.4,0.7-2.2,1.4-2.6v0L6,177.7V176.4z M9.2,177.9c-0.3,0-0.5,0-0.7,0.1c-0.9,0.3-1.6,1-1.6,2.1c0,1.4,1.2,2.4,3.1,2.4
				c1.6,0,3-0.8,3-2.4c0-0.9-0.6-1.8-1.5-2.1c-0.3-0.1-0.5-0.1-0.8-0.1H9.2z"/>
			<path d="M3.6,168.6H6v-2.1h1.1v2.1h4.4c1,0,1.6-0.3,1.6-1.1c0-0.4-0.1-0.7-0.1-0.9l1.1-0.1c0.1,0.3,0.2,0.7,0.2,1.3
				c0,0.7-0.2,1.3-0.6,1.6c-0.4,0.4-1.2,0.6-2.1,0.6H7.1v1.3H6V170H4L3.6,168.6z"/>
			<path d="M3.7,163.1c0.5,0,0.9,0.4,0.9,1c0,0.5-0.4,0.9-0.9,0.9c-0.5,0-0.9-0.4-0.9-0.9C2.8,163.4,3.2,163.1,3.7,163.1z
				 M14.2,164.8H6v-1.5h8.2V164.8z"/>
			<path d="M8.2,160.8c-0.9,0-1.5,0-2.2,0.1v-1.3l1.3-0.1v-0.1c-0.8-0.5-1.5-1.2-1.5-2.6c0-1.1,0.7-2,1.6-2.3v0
				c-0.5-0.3-0.8-0.6-1.1-0.9c-0.4-0.5-0.6-1-0.6-1.8c0-1.1,0.7-2.7,3.6-2.7h4.8v1.5H9.6c-1.6,0-2.5,0.6-2.5,1.8
				c0,0.9,0.6,1.5,1.4,1.8c0.2,0.1,0.5,0.1,0.7,0.1h5.1v1.5H9.3c-1.3,0-2.3,0.6-2.3,1.7c0,0.9,0.7,1.6,1.5,1.9
				c0.2,0.1,0.5,0.1,0.7,0.1h5v1.5H8.2z"/>
			<path d="M10.4,145.8c2,0,2.9-1.3,2.9-2.8c0-1.1-0.2-1.7-0.4-2.3l1.1-0.3c0.2,0.5,0.5,1.4,0.5,2.7c0,2.5-1.7,4-4.1,4
				s-4.4-1.5-4.4-3.9c0-2.7,2.4-3.4,3.9-3.4c0.3,0,0.5,0,0.7,0.1V145.8z M9.3,141.4c-1,0-2.4,0.4-2.4,2.1c0,1.5,1.4,2.2,2.4,2.3
				V141.4z"/>
			<path d="M2.4,131.2c1.7,1.2,3.9,2.1,7,2.1c3,0,5.2-0.9,6.9-2.1v1.2c-1.4,1.1-3.6,2.2-6.9,2.2c-3.3,0-5.5-1.2-7-2.2V131.2z"/>
			<path d="M12.7,129.9c0.3-0.4,0.6-1.2,0.6-2c0-1.1-0.5-1.6-1.2-1.6c-0.7,0-1.1,0.4-1.5,1.5c-0.5,1.5-1.3,2.2-2.3,2.2
				c-1.3,0-2.4-1.1-2.4-2.8c0-0.8,0.2-1.6,0.5-2l1.1,0.4c-0.2,0.3-0.5,0.9-0.5,1.7c0,0.9,0.5,1.4,1.1,1.4c0.7,0,1-0.5,1.4-1.6
				c0.5-1.4,1.3-2.2,2.5-2.2c1.4,0,2.5,1.1,2.5,3.1c0,0.9-0.2,1.7-0.6,2.3L12.7,129.9z"/>
			<path d="M10.4,122.1c2,0,2.9-1.3,2.9-2.8c0-1.1-0.2-1.7-0.4-2.3l1.1-0.3c0.2,0.5,0.5,1.4,0.5,2.7c0,2.5-1.7,4-4.1,4
				s-4.4-1.5-4.4-3.9c0-2.7,2.4-3.4,3.9-3.4c0.3,0,0.5,0,0.7,0.1V122.1z M9.3,117.7c-1,0-2.4,0.4-2.4,2.1c0,1.5,1.4,2.2,2.4,2.3
				V117.7z"/>
		</g>
		<g class="st0">
			<path d="M13.9,108.5c0.2,0.4,0.5,1.3,0.5,2.4c0,2.5-1.7,4.1-4.2,4.1c-2.5,0-4.4-1.7-4.4-4.4c0-0.9,0.2-1.7,0.4-2.1l1.2,0.3
				c-0.2,0.4-0.4,0.9-0.4,1.7c0,1.9,1.4,2.9,3.1,2.9c1.9,0,3.1-1.2,3.1-2.9c0-0.8-0.2-1.4-0.4-1.8L13.9,108.5z"/>
		</g>
		<g class="st0">
			<path d="M10,99.4c3,0,4.4,2.1,4.4,4.1c0,2.2-1.6,3.9-4.2,3.9c-2.8,0-4.4-1.8-4.4-4.1C5.8,101,7.5,99.4,10,99.4z M10.1,106
				c1.8,0,3.2-1,3.2-2.5c0-1.4-1.3-2.5-3.2-2.5c-1.4,0-3.2,0.7-3.2,2.5C6.9,105.2,8.6,106,10.1,106z"/>
			<path d="M8.2,97.6c-0.9,0-1.5,0-2.2,0.1v-1.3l1.4-0.1v0c-0.8-0.4-1.5-1.4-1.5-2.7c0-1.1,0.7-2.9,3.5-2.9h4.9V92H9.5
				c-1.3,0-2.4,0.5-2.4,1.9c0,1,0.7,1.8,1.5,2C8.8,96,9,96.1,9.3,96.1h4.9v1.5H8.2z"/>
			<path d="M2.2,81h9.9c0.7,0,1.6,0,2.1-0.1v1.3l-1.4,0.1v0c0.9,0.5,1.6,1.5,1.6,2.8c0,2-1.7,3.5-4.2,3.5c-2.7,0-4.4-1.7-4.4-3.7
				c0-1.3,0.6-2.1,1.3-2.5v0H2.2V81z M9.4,82.5c-0.2,0-0.4,0-0.6,0.1c-1,0.2-1.7,1-1.7,2.2c0,1.5,1.4,2.5,3.2,2.5c1.7,0,3-0.8,3-2.4
				c0-1-0.7-1.9-1.8-2.2c-0.2-0.1-0.4-0.1-0.6-0.1H9.4z"/>
			<path d="M12.7,78.7c0.3-0.4,0.6-1.2,0.6-2c0-1.1-0.5-1.6-1.2-1.6c-0.7,0-1.1,0.4-1.5,1.5c-0.5,1.5-1.3,2.2-2.3,2.2
				c-1.3,0-2.4-1.1-2.4-2.8c0-0.8,0.2-1.6,0.5-2l1.1,0.4c-0.2,0.3-0.5,0.9-0.5,1.7c0,0.9,0.5,1.4,1.1,1.4c0.7,0,1-0.5,1.4-1.6
				c0.5-1.4,1.3-2.2,2.5-2.2c1.4,0,2.5,1.1,2.5,3.1c0,0.9-0.2,1.7-0.6,2.3L12.7,78.7z"/>
			<path d="M16.3,72.7c-1.7-1.2-3.9-2.1-7-2.1c-3,0-5.2,0.9-6.9,2.1v-1.2c1.4-1.1,3.6-2.2,6.9-2.2c3.3,0,5.5,1.1,6.9,2.2V72.7z"/>
		</g>
	</g>
	<g id="Layer_14">
		<rect x="47.1" y="0.5" class="st1" width="394.6" height="284.2"/>
		<line class="st2" x1="57.2" y1="284.7" x2="57.2" y2="288.2"/>
		<line class="st3" x1="57.2" y1="284.7" x2="57.2" y2="288.2"/>
		<line class="st2" x1="126.5" y1="284.7" x2="126.5" y2="288.2"/>
		<line class="st3" x1="126.5" y1="284.7" x2="126.5" y2="288.2"/>
		<line class="st2" x1="195.8" y1="284.7" x2="195.8" y2="288.2"/>
		<line class="st3" x1="195.8" y1="284.7" x2="195.8" y2="288.2"/>
		<line class="st2" x1="265.2" y1="284.7" x2="265.2" y2="288.2"/>
		<line class="st3" x1="265.2" y1="284.7" x2="265.2" y2="288.2"/>
		<line class="st2" x1="334.5" y1="284.7" x2="334.5" y2="288.2"/>
		<line class="st3" x1="334.5" y1="284.7" x2="334.5" y2="288.2"/>
		<line class="st2" x1="47.1" y1="272.9" x2="43.4" y2="272.9"/>
		<line class="st3" x1="47.1" y1="272.9" x2="43.4" y2="272.9"/>
		<line class="st2" x1="47.1" y1="239.4" x2="43.4" y2="239.4"/>
		<line class="st3" x1="47.1" y1="239.4" x2="43.4" y2="239.4"/>
		<line class="st2" x1="47.1" y1="205.9" x2="43.4" y2="205.9"/>
		<line class="st3" x1="47.1" y1="205.9" x2="43.4" y2="205.9"/>
		<line class="st2" x1="47.1" y1="172.4" x2="43.4" y2="172.4"/>
		<line class="st3" x1="47.1" y1="172.4" x2="43.4" y2="172.4"/>
		<line class="st2" x1="47.1" y1="139" x2="43.4" y2="139"/>
		<line class="st3" x1="47.1" y1="139" x2="43.4" y2="139"/>
		<line class="st2" x1="47.1" y1="105.5" x2="43.4" y2="105.5"/>
		<line class="st3" x1="47.1" y1="105.5" x2="43.4" y2="105.5"/>
		<line class="st2" x1="47.1" y1="72" x2="43.4" y2="72"/>
		<line class="st3" x1="47.1" y1="72" x2="43.4" y2="72"/>
		<line class="st2" x1="47.1" y1="38.6" x2="43.4" y2="38.6"/>
		<line class="st3" x1="47.1" y1="38.6" x2="43.4" y2="38.6"/>
		<line class="st4" x1="47.1" y1="139.1" x2="49.6" y2="139.1"/>
		<line class="st5" x1="54.7" y1="139.1" x2="436.6" y2="139.1"/>
		<line class="st4" x1="439.1" y1="139.1" x2="441.6" y2="139.1"/>
		<line class="st4" x1="47.2" y1="172.4" x2="49.7" y2="172.4"/>
		<line class="st5" x1="54.7" y1="172.4" x2="436.6" y2="172.4"/>
		<line class="st4" x1="439.2" y1="172.4" x2="441.7" y2="172.4"/>
		<line class="st4" x1="47.1" y1="205.5" x2="49.6" y2="205.5"/>
		<line class="st5" x1="54.7" y1="205.5" x2="436.6" y2="205.5"/>
		<line class="st4" x1="439.1" y1="205.5" x2="441.6" y2="205.5"/>
		<line class="st4" x1="47.2" y1="238.8" x2="49.7" y2="238.8"/>
		<line class="st5" x1="54.7" y1="238.8" x2="436.6" y2="238.8"/>
		<line class="st4" x1="439.2" y1="238.8" x2="441.7" y2="238.8"/>
		<line class="st4" x1="47.1" y1="39.1" x2="49.6" y2="39.1"/>
		<line class="st5" x1="54.7" y1="39.1" x2="436.6" y2="39.1"/>
		<line class="st4" x1="439.1" y1="39.1" x2="441.6" y2="39.1"/>
		<line class="st4" x1="47.1" y1="72.2" x2="49.6" y2="72.2"/>
		<line class="st5" x1="54.6" y1="72.2" x2="436.5" y2="72.2"/>
		<line class="st4" x1="439.1" y1="72.2" x2="441.6" y2="72.2"/>
		<line class="st4" x1="47.1" y1="105.5" x2="49.6" y2="105.5"/>
		<line class="st5" x1="54.7" y1="105.5" x2="436.6" y2="105.5"/>
		<line class="st4" x1="439.1" y1="105.5" x2="441.6" y2="105.5"/>
		<polyline class="st6" points="64.1,272.6 67.6,272.4 71,272.1 74.5,271.9 78,271.3 81.4,270.7 84.9,270.4 88.4,269.8 91.8,269.2 
			95.3,268.4 98.8,267.6 102.2,266.9 105.7,266.2 109.2,265.1 112.6,264.6 116.1,263.8 119.6,262.7 123,261.6 126.5,260.5 
			130,259.6 133.4,258.2 136.9,257.3 140.4,256.6 143.8,255.3 147.3,253.7 150.8,252.3 154.2,250.9 157.7,249.9 161.2,248.2 
			164.6,246.5 168.1,245.3 171.6,243.6 175,241.9 178.5,240.5 182,237.6 185.4,235.4 188.9,231 192.4,227.9 195.8,225.1 199.3,224 
			202.8,221.8 206.2,220 209.7,217.7 213.2,215.2 216.6,212.6 220.1,210.8 223.6,205.5 227,202.2 230.5,199.9 234,197.9 
			237.4,193.2 240.9,190.8 244.4,187.8 247.8,186.3 251.3,183.2 254.8,181.4 258.2,178.5 261.7,176.2 265.2,172.9 268.6,169.3 
			272.1,166.4 275.6,164.1 279,161.8 282.5,158.7 286,155.4 289.4,150.5 292.9,147.8 296.4,145.1 299.8,141.6 303.3,138.6 
			306.8,134.6 310.2,131.1 313.7,127.9 317.2,124.8 320.6,120.2 324.1,117.3 327.6,113.9 331,111.3 334.5,108.3 338,105.1 
			341.4,102.8 344.9,99 348.4,95.7 351.8,90.8 355.3,87.8 358.8,85.2 362.2,81.4 365.7,78.3 369.2,75.1 372.6,71.4 376.1,68.9 
			379.6,64.2 383,59.6 386.5,56.8 390,52 393.4,47.7 396.9,43 400.4,36.8 403.8,30.7 		"/>
		<polyline class="st7" points="64.1,272.6 67.6,272.4 71,272.2 74.5,272.1 78,271.6 81.4,271.3 84.9,271.2 88.4,270.8 91.8,270.4 
			95.3,270 98.8,269.6 102.2,269.3 105.7,268.9 109.2,268.3 112.6,268.1 116.1,267.5 119.6,267 123,266.2 126.5,265.7 130,265.2 
			133.4,264.4 136.9,264 140.4,263.6 143.8,262.6 147.3,262 150.8,260.9 154.2,260.5 157.7,260 161.2,259 164.6,258 168.1,257.9 
			171.6,256.8 175,256 178.5,255.4 182,253.4 185.4,252.6 188.9,249.5 192.4,248.9 195.8,247.9 199.3,248.1 202.8,247.1 
			206.2,246.3 209.7,244.8 213.2,243.6 216.6,242.1 220.1,241.5 223.6,237.7 227,236.9 230.5,236.1 234,235.2 237.4,231.8 
			240.9,231.4 244.4,229.6 247.8,229.2 251.3,227.1 254.8,226.7 258.2,225 261.7,224.4 265.2,221.7 268.6,219.6 272.1,218.6 
			275.6,217.2 279,216 282.5,214.2 286,212.5 289.4,209.2 292.9,208.9 296.4,206.6 299.8,205 303.3,203.9 306.8,201.3 310.2,199.1 
			313.7,197.2 317.2,195.4 320.6,193 324.1,192.1 327.6,189.6 331,188.3 334.5,186.7 338,184.5 341.4,183.6 344.9,181.2 
			348.4,179.2 351.8,176.8 355.3,175.2 358.8,172.9 362.2,171.9 365.7,169.3 369.2,168.1 372.6,165.9 376.1,163.7 379.6,159.8 
			383,157 386.5,154.6 390,153 393.4,150.5 396.9,149.1 400.4,144.4 403.8,141 		"/>
		<line class="st8" x1="47.1" y1="284.7" x2="47.1" y2="0.5"/>
		<line class="st8" x1="47.1" y1="284.7" x2="441.7" y2="284.7"/>
		<line class="st2" x1="334.5" y1="284.7" x2="334.5" y2="288.2"/>
		<line class="st2" x1="403.8" y1="284.7" x2="403.8" y2="288.2"/>
		<line class="st3" x1="403.8" y1="284.7" x2="403.8" y2="288.2"/>
		<g class="st0">
			<path class="st9" d="M345.7,16.2l0.9,3.4c0.2,0.7,0.4,1.4,0.5,2.1h0c0.2-0.7,0.4-1.4,0.6-2.1l1.1-3.4h1l1,3.3
				c0.2,0.8,0.4,1.5,0.6,2.2h0c0.1-0.7,0.3-1.4,0.5-2.2l1-3.4h1.2l-2.2,6.7h-1.1l-1-3.2c-0.2-0.7-0.4-1.4-0.6-2.2h0
				c-0.2,0.8-0.4,1.5-0.6,2.2l-1.1,3.2h-1.1l-2-6.7H345.7z"/>
			<path class="st9" d="M356.7,14.3c0,0.4-0.3,0.7-0.8,0.7c-0.4,0-0.7-0.3-0.7-0.7c0-0.4,0.3-0.8,0.8-0.8
				C356.4,13.5,356.7,13.9,356.7,14.3z M355.4,22.9v-6.7h1.2v6.7H355.4z"/>
			<path class="st9" d="M360.1,14.2v1.9h1.7v0.9h-1.7v3.6c0,0.8,0.2,1.3,0.9,1.3c0.3,0,0.6,0,0.7-0.1l0.1,0.9
				c-0.2,0.1-0.6,0.2-1.1,0.2c-0.6,0-1-0.2-1.3-0.5c-0.3-0.4-0.5-1-0.5-1.7v-3.6h-1v-0.9h1v-1.6L360.1,14.2z"/>
			<path class="st9" d="M363.2,13h1.2v4.2h0c0.2-0.3,0.5-0.6,0.9-0.9c0.4-0.2,0.8-0.3,1.2-0.3c0.9,0,2.3,0.6,2.3,2.9v4h-1.2V19
				c0-1.1-0.4-2-1.5-2c-0.8,0-1.4,0.6-1.6,1.2c-0.1,0.2-0.1,0.3-0.1,0.6v4h-1.2V13z"/>
			<path class="st9" d="M376.9,19.5c0,2.5-1.7,3.6-3.3,3.6c-1.8,0-3.2-1.3-3.2-3.4c0-2.2,1.5-3.6,3.3-3.6
				C375.6,16,376.9,17.4,376.9,19.5z M371.6,19.5c0,1.5,0.8,2.6,2,2.6c1.2,0,2-1.1,2-2.6c0-1.1-0.6-2.6-2-2.6
				C372.2,16.9,371.6,18.3,371.6,19.5z"/>
			<path class="st9" d="M384,21c0,0.7,0,1.3,0.1,1.8H383l-0.1-1.1h0c-0.3,0.5-1,1.2-2.2,1.2c-1.1,0-2.3-0.6-2.3-2.9v-3.9h1.2v3.7
				c0,1.3,0.4,2.1,1.5,2.1c0.8,0,1.4-0.6,1.6-1.1c0.1-0.2,0.1-0.4,0.1-0.6v-4.1h1.2V21z"/>
			<path class="st9" d="M387.5,14.2v1.9h1.7v0.9h-1.7v3.6c0,0.8,0.2,1.3,0.9,1.3c0.3,0,0.6,0,0.7-0.1l0.1,0.9
				c-0.2,0.1-0.6,0.2-1.1,0.2c-0.6,0-1-0.2-1.3-0.5c-0.3-0.4-0.5-1-0.5-1.7v-3.6h-1v-0.9h1v-1.6L387.5,14.2z"/>
			<path class="st9" d="M398.3,22.6c-0.3,0.2-1,0.4-1.9,0.4c-2,0-3.3-1.4-3.3-3.4c0-2.1,1.4-3.6,3.6-3.6c0.7,0,1.4,0.2,1.7,0.3
				l-0.3,0.9c-0.3-0.2-0.7-0.3-1.4-0.3c-1.5,0-2.4,1.1-2.4,2.5c0,1.5,1,2.5,2.3,2.5c0.7,0,1.1-0.2,1.5-0.3L398.3,22.6z"/>
			<path class="st9" d="M403.4,22.9l-0.1-0.8h0c-0.4,0.5-1.1,1-2,1c-1.4,0-2-1-2-1.9c0-1.6,1.4-2.5,4-2.5v-0.1
				c0-0.6-0.2-1.5-1.5-1.5c-0.6,0-1.3,0.2-1.7,0.5l-0.3-0.8c0.6-0.4,1.4-0.6,2.2-0.6c2,0,2.5,1.4,2.5,2.7v2.5c0,0.6,0,1.1,0.1,1.6
				H403.4z M403.3,19.4c-1.3,0-2.8,0.2-2.8,1.5c0,0.8,0.5,1.2,1.1,1.2c0.9,0,1.4-0.6,1.6-1.1c0-0.1,0.1-0.3,0.1-0.4V19.4z"/>
			<path class="st9" d="M411.2,22.6c-0.3,0.2-1,0.4-1.9,0.4c-2,0-3.3-1.4-3.3-3.4c0-2.1,1.4-3.6,3.6-3.6c0.7,0,1.4,0.2,1.7,0.3
				l-0.3,0.9c-0.3-0.2-0.7-0.3-1.4-0.3c-1.5,0-2.4,1.1-2.4,2.5c0,1.5,1,2.5,2.3,2.5c0.7,0,1.1-0.2,1.5-0.3L411.2,22.6z"/>
			<path class="st9" d="M412.6,13h1.2v4.2h0c0.2-0.3,0.5-0.6,0.9-0.9c0.4-0.2,0.8-0.3,1.2-0.3c0.9,0,2.3,0.6,2.3,2.9v4h-1.2V19
				c0-1.1-0.4-2-1.5-2c-0.8,0-1.4,0.6-1.6,1.2c-0.1,0.2-0.1,0.3-0.1,0.6v4h-1.2V13z"/>
			<path class="st9" d="M420.9,19.7c0,1.6,1.1,2.3,2.3,2.3c0.9,0,1.4-0.2,1.9-0.3l0.2,0.9c-0.4,0.2-1.2,0.4-2.2,0.4
				c-2.1,0-3.3-1.4-3.3-3.4c0-2,1.2-3.6,3.1-3.6c2.2,0,2.8,1.9,2.8,3.2c0,0.2,0,0.4,0,0.6H420.9z M424.5,18.9c0-0.8-0.3-2-1.7-2
				c-1.2,0-1.8,1.1-1.9,2H424.5z"/>
		</g>
		<g class="st0">
			<path class="st10" d="M365.4,128.8l0.9,3.4c0.2,0.7,0.4,1.4,0.5,2.1h0c0.2-0.7,0.4-1.4,0.6-2.1l1.1-3.4h1l1,3.3
				c0.2,0.8,0.4,1.5,0.6,2.2h0c0.1-0.7,0.3-1.4,0.5-2.2l1-3.4h1.2l-2.2,6.7h-1.1l-1-3.2c-0.2-0.7-0.4-1.4-0.6-2.2h0
				c-0.2,0.8-0.4,1.5-0.6,2.2l-1.1,3.2h-1.1l-2-6.7H365.4z"/>
			<path class="st10" d="M376.5,126.9c0,0.4-0.3,0.7-0.8,0.7c-0.4,0-0.7-0.3-0.7-0.7c0-0.4,0.3-0.8,0.8-0.8
				C376.2,126.1,376.5,126.5,376.5,126.9z M375.1,135.5v-6.7h1.2v6.7H375.1z"/>
			<path class="st10" d="M379.8,126.9v1.9h1.7v0.9h-1.7v3.6c0,0.8,0.2,1.3,0.9,1.3c0.3,0,0.6,0,0.7-0.1l0.1,0.9
				c-0.2,0.1-0.6,0.2-1.1,0.2c-0.6,0-1-0.2-1.3-0.5c-0.3-0.4-0.5-1-0.5-1.7v-3.6h-1v-0.9h1v-1.6L379.8,126.9z"/>
			<path class="st10" d="M382.9,125.7h1.2v4.2h0c0.2-0.3,0.5-0.6,0.9-0.9c0.4-0.2,0.8-0.3,1.2-0.3c0.9,0,2.3,0.6,2.3,2.9v4h-1.2
				v-3.8c0-1.1-0.4-2-1.5-2c-0.8,0-1.4,0.6-1.6,1.2c-0.1,0.2-0.1,0.3-0.1,0.6v4h-1.2V125.7z"/>
			<path class="st10" d="M398.3,135.2c-0.3,0.2-1,0.4-1.9,0.4c-2,0-3.3-1.4-3.3-3.4c0-2.1,1.4-3.6,3.6-3.6c0.7,0,1.4,0.2,1.7,0.3
				l-0.3,0.9c-0.3-0.2-0.7-0.3-1.4-0.3c-1.5,0-2.4,1.1-2.4,2.5c0,1.5,1,2.5,2.3,2.5c0.7,0,1.1-0.2,1.5-0.3L398.3,135.2z"/>
			<path class="st10" d="M403.4,135.5l-0.1-0.8h0c-0.4,0.5-1.1,1-2,1c-1.4,0-2-1-2-1.9c0-1.6,1.4-2.5,4-2.5v-0.1
				c0-0.6-0.2-1.5-1.5-1.5c-0.6,0-1.3,0.2-1.7,0.5l-0.3-0.8c0.6-0.4,1.4-0.6,2.2-0.6c2,0,2.5,1.4,2.5,2.7v2.5c0,0.6,0,1.1,0.1,1.6
				H403.4z M403.3,132.1c-1.3,0-2.8,0.2-2.8,1.5c0,0.8,0.5,1.2,1.1,1.2c0.9,0,1.4-0.6,1.6-1.1c0-0.1,0.1-0.3,0.1-0.4V132.1z"/>
			<path class="st10" d="M411.2,135.2c-0.3,0.2-1,0.4-1.9,0.4c-2,0-3.3-1.4-3.3-3.4c0-2.1,1.4-3.6,3.6-3.6c0.7,0,1.4,0.2,1.7,0.3
				l-0.3,0.9c-0.3-0.2-0.7-0.3-1.4-0.3c-1.5,0-2.4,1.1-2.4,2.5c0,1.5,1,2.5,2.3,2.5c0.7,0,1.1-0.2,1.5-0.3L411.2,135.2z"/>
			<path class="st10" d="M412.6,125.7h1.2v4.2h0c0.2-0.3,0.5-0.6,0.9-0.9c0.4-0.2,0.8-0.3,1.2-0.3c0.9,0,2.3,0.6,2.3,2.9v4h-1.2
				v-3.8c0-1.1-0.4-2-1.5-2c-0.8,0-1.4,0.6-1.6,1.2c-0.1,0.2-0.1,0.3-0.1,0.6v4h-1.2V125.7z"/>
			<path class="st10" d="M420.9,132.4c0,1.6,1.1,2.3,2.3,2.3c0.9,0,1.4-0.2,1.9-0.3l0.2,0.9c-0.4,0.2-1.2,0.4-2.2,0.4
				c-2.1,0-3.3-1.4-3.3-3.4c0-2,1.2-3.6,3.1-3.6c2.2,0,2.8,1.9,2.8,3.2c0,0.2,0,0.4,0,0.6H420.9z M424.5,131.5c0-0.8-0.3-2-1.7-2
				c-1.2,0-1.8,1.1-1.9,2H424.5z"/>
		</g>
		<g class="st0">
			<path d="M38.4,271.1c0,3.8-1.4,5.8-3.8,5.8c-2.2,0-3.6-2-3.7-5.7c0-3.7,1.6-5.7,3.8-5.7C37.1,265.5,38.4,267.6,38.4,271.1z
				 M32.4,271.3c0,2.9,0.9,4.5,2.2,4.5c1.5,0,2.3-1.8,2.3-4.6c0-2.7-0.7-4.5-2.2-4.5C33.4,266.7,32.4,268.3,32.4,271.3z"/>
		</g>
		<g class="st0">
			<path d="M34.3,236.2L34.3,236.2l-2,1l-0.3-1.1l2.4-1.3h1.3v11h-1.4V236.2z"/>
		</g>
		<g class="st0">
			<path d="M31.1,209.3v-0.9l1.2-1.1c2.8-2.7,4.1-4.1,4.1-5.8c0-1.1-0.5-2.2-2.2-2.2c-1,0-1.8,0.5-2.3,0.9l-0.5-1.1
				c0.8-0.6,1.9-1.1,3.1-1.1c2.4,0,3.4,1.6,3.4,3.2c0,2-1.5,3.7-3.8,5.9l-0.9,0.8v0h5v1.2H31.1z"/>
		</g>
		<g class="st0">
			<path d="M31.4,176.7c0.4,0.3,1.4,0.7,2.4,0.7c1.9,0,2.5-1.2,2.5-2.1c0-1.5-1.4-2.2-2.9-2.2h-0.8v-1.1h0.8c1.1,0,2.5-0.6,2.5-1.9
				c0-0.9-0.6-1.7-1.9-1.7c-0.9,0-1.7,0.4-2.2,0.7l-0.4-1.1c0.6-0.4,1.7-0.9,2.9-0.9c2.2,0,3.2,1.3,3.2,2.6c0,1.1-0.7,2.1-2,2.6v0
				c1.4,0.3,2.5,1.3,2.5,2.8c0,1.8-1.4,3.3-4,3.3c-1.2,0-2.3-0.4-2.9-0.7L31.4,176.7z"/>
		</g>
		<g class="st0">
			<path d="M35.7,144.8v-3h-5.1v-1l4.9-7.1h1.6v6.9h1.5v1.2h-1.5v3H35.7z M35.7,140.6V137c0-0.6,0-1.2,0.1-1.7h-0.1
				c-0.3,0.6-0.6,1.1-0.9,1.6l-2.7,3.8v0H35.7z"/>
		</g>
		<g class="st0">
			<path d="M37.7,104.1h-4.2l-0.4,2.8c0.3,0,0.5-0.1,0.9-0.1c0.9,0,1.7,0.2,2.4,0.6c0.9,0.5,1.6,1.4,1.6,2.8c0,2.2-1.7,3.8-4.1,3.8
				c-1.2,0-2.2-0.3-2.8-0.7l0.4-1.1c0.5,0.3,1.4,0.6,2.4,0.6c1.4,0,2.6-0.9,2.6-2.4c0-1.4-1-2.4-3.2-2.4c-0.6,0-1.1,0.1-1.5,0.1
				l0.7-5.3h5.3V104.1z"/>
		</g>
		<g class="st0">
			<path d="M37.4,67.4c-0.3,0-0.7,0-1.1,0.1c-2.3,0.4-3.6,2.1-3.8,3.9h0.1c0.5-0.7,1.4-1.3,2.7-1.3c2,0,3.3,1.4,3.3,3.6
				c0,2-1.4,3.9-3.7,3.9c-2.4,0-3.9-1.8-3.9-4.7c0-2.2,0.8-3.9,1.9-5c0.9-0.9,2.1-1.5,3.5-1.6c0.4-0.1,0.8-0.1,1.1-0.1V67.4z
				 M36.9,73.8c0-1.6-0.9-2.5-2.3-2.5c-0.9,0-1.7,0.6-2.1,1.4c-0.1,0.2-0.2,0.4-0.2,0.7c0,1.8,0.9,3.2,2.4,3.2
				C36.1,76.4,36.9,75.4,36.9,73.8z"/>
		</g>
		<g class="st0">
			<path d="M38.2,35.4v1l-4.8,10.1h-1.5l4.8-9.8v0h-5.4v-1.2H38.2z"/>
		</g>
		<g class="st0">
			<path d="M60.9,298.4c0,3.8-1.4,5.8-3.8,5.8c-2.2,0-3.6-2-3.7-5.7c0-3.7,1.6-5.7,3.8-5.7C59.6,292.8,60.9,294.9,60.9,298.4z
				 M54.9,298.6c0,2.9,0.9,4.5,2.2,4.5c1.5,0,2.3-1.8,2.3-4.6c0-2.7-0.7-4.5-2.2-4.5C55.9,294,54.9,295.6,54.9,298.6z"/>
		</g>
		<g class="st0">
			<path d="M118.5,304.1v-0.9l1.2-1.1c2.8-2.7,4.1-4.1,4.1-5.8c0-1.1-0.5-2.2-2.2-2.2c-1,0-1.8,0.5-2.3,0.9l-0.5-1.1
				c0.8-0.6,1.9-1.1,3.1-1.1c2.4,0,3.4,1.6,3.4,3.2c0,2-1.5,3.7-3.8,5.9l-0.9,0.8v0h5v1.2H118.5z"/>
			<path d="M134.6,298.4c0,3.8-1.4,5.8-3.8,5.8c-2.2,0-3.6-2-3.7-5.7c0-3.7,1.6-5.7,3.8-5.7C133.3,292.8,134.6,294.9,134.6,298.4z
				 M128.6,298.6c0,2.9,0.9,4.5,2.2,4.5c1.5,0,2.3-1.8,2.3-4.6c0-2.7-0.7-4.5-2.2-4.5C129.6,294,128.6,295.6,128.6,298.6z"/>
		</g>
		<g class="st0">
			<path d="M192.5,304.1v-3h-5.1v-1l4.9-7.1h1.6v6.9h1.5v1.2h-1.5v3H192.5z M192.5,299.9v-3.7c0-0.6,0-1.2,0.1-1.7h-0.1
				c-0.3,0.6-0.6,1.1-0.9,1.6l-2.7,3.8v0H192.5z"/>
			<path d="M203.9,298.4c0,3.8-1.4,5.8-3.8,5.8c-2.2,0-3.6-2-3.7-5.7c0-3.7,1.6-5.7,3.8-5.7C202.6,292.8,203.9,294.9,203.9,298.4z
				 M197.9,298.6c0,2.9,0.9,4.5,2.2,4.5c1.5,0,2.3-1.8,2.3-4.6c0-2.7-0.7-4.5-2.2-4.5C198.9,294,197.9,295.6,197.9,298.6z"/>
		</g>
		<g class="st0">
			<path d="M263.5,294.1c-0.3,0-0.7,0-1.1,0.1c-2.3,0.4-3.6,2.1-3.8,3.9h0.1c0.5-0.7,1.4-1.3,2.7-1.3c2,0,3.3,1.4,3.3,3.6
				c0,2-1.4,3.9-3.7,3.9c-2.4,0-3.9-1.8-3.9-4.7c0-2.2,0.8-3.9,1.9-5c0.9-0.9,2.1-1.5,3.5-1.6c0.4-0.1,0.8-0.1,1.1-0.1V294.1z
				 M263.1,300.5c0-1.6-0.9-2.5-2.3-2.5c-0.9,0-1.7,0.6-2.1,1.4c-0.1,0.2-0.2,0.4-0.2,0.7c0,1.8,0.9,3.2,2.4,3.2
				C262.2,303.1,263.1,302,263.1,300.5z"/>
			<path d="M273.3,298.4c0,3.8-1.4,5.8-3.8,5.8c-2.2,0-3.6-2-3.7-5.7c0-3.7,1.6-5.7,3.8-5.7C271.9,292.8,273.3,294.9,273.3,298.4z
				 M267.3,298.6c0,2.9,0.9,4.5,2.2,4.5c1.5,0,2.3-1.8,2.3-4.6c0-2.7-0.7-4.5-2.2-4.5C268.2,294,267.3,295.6,267.3,298.6z"/>
		</g>
		<g class="st0">
			<path d="M326.4,301.3c0-1.4,0.8-2.4,2.2-3l0-0.1c-1.2-0.6-1.8-1.5-1.8-2.5c0-1.8,1.5-2.9,3.4-2.9c2.1,0,3.2,1.3,3.2,2.7
				c0,0.9-0.5,1.9-1.8,2.6v0.1c1.4,0.5,2.2,1.5,2.2,2.9c0,1.9-1.6,3.2-3.8,3.2C327.8,304.3,326.4,302.9,326.4,301.3z M332.4,301.2
				c0-1.3-0.9-2-2.4-2.4c-1.3,0.4-2,1.2-2,2.3c-0.1,1.1,0.8,2.1,2.2,2.1C331.5,303.2,332.4,302.3,332.4,301.2z M328.2,295.7
				c0,1.1,0.8,1.7,2.1,2c1-0.3,1.7-1,1.7-2c0-0.9-0.5-1.8-1.9-1.8C328.9,293.9,328.2,294.7,328.2,295.7z"/>
			<path d="M342.6,298.4c0,3.8-1.4,5.8-3.8,5.8c-2.2,0-3.6-2-3.7-5.7c0-3.7,1.6-5.7,3.8-5.7C341.3,292.8,342.6,294.9,342.6,298.4z
				 M336.6,298.6c0,2.9,0.9,4.5,2.2,4.5c1.5,0,2.3-1.8,2.3-4.6c0-2.7-0.7-4.5-2.2-4.5C337.6,294,336.6,295.6,336.6,298.6z"/>
		</g>
		<g class="st0">
			<path d="M394.8,294.4L394.8,294.4l-2,1l-0.3-1.1l2.4-1.3h1.3v11h-1.4V294.4z"/>
			<path d="M407.6,298.4c0,3.8-1.4,5.8-3.8,5.8c-2.2,0-3.6-2-3.7-5.7c0-3.7,1.6-5.7,3.8-5.7C406.3,292.8,407.6,294.9,407.6,298.4z
				 M401.6,298.6c0,2.9,0.9,4.5,2.2,4.5c1.5,0,2.3-1.8,2.3-4.6c0-2.7-0.7-4.5-2.2-4.5C402.5,294,401.6,295.6,401.6,298.6z"/>
			<path d="M416.3,298.4c0,3.8-1.4,5.8-3.8,5.8c-2.2,0-3.6-2-3.7-5.7c0-3.7,1.6-5.7,3.8-5.7C415,292.8,416.3,294.9,416.3,298.4z
				 M410.3,298.6c0,2.9,0.9,4.5,2.2,4.5c1.5,0,2.3-1.8,2.3-4.6c0-2.7-0.7-4.5-2.2-4.5C411.3,294,410.3,295.6,410.3,298.6z"/>
		</g>
		<line class="st11" x1="89.4" y1="284.7" x2="89.4" y2="278.7"/>
		<line class="st12" x1="89.4" y1="273.8" x2="89.4" y2="9"/>
		<line class="st11" x1="89.4" y1="6.5" x2="89.4" y2="0.5"/>
		<g class="st0">
			<path class="st13" d="M101.4,51.8l-0.1-0.8h0c-0.4,0.5-1.1,1-2,1c-1.4,0-2-1-2-1.9c0-1.6,1.4-2.5,4-2.5v-0.1
				c0-0.6-0.2-1.5-1.5-1.5c-0.6,0-1.3,0.2-1.7,0.5l-0.3-0.8c0.6-0.4,1.4-0.6,2.2-0.6c2,0,2.5,1.4,2.5,2.7v2.5c0,0.6,0,1.1,0.1,1.6
				H101.4z M101.2,48.3c-1.3,0-2.8,0.2-2.8,1.5c0,0.8,0.5,1.2,1.1,1.2c0.9,0,1.4-0.6,1.6-1.1c0-0.1,0.1-0.3,0.1-0.4V48.3z"/>
		</g>
		<g class="st0">
			<path class="st13" d="M104.7,45.1l1.3,3.8c0.2,0.6,0.4,1.2,0.5,1.7h0c0.2-0.6,0.3-1.1,0.6-1.7l1.3-3.8h1.3l-2.6,6.7h-1.2
				l-2.5-6.7H104.7z"/>
		</g>
		<g class="st0">
			<path class="st13" d="M116.5,45.1c0,0.5-0.1,1-0.1,1.8v3.9c0,1.5-0.3,2.5-1,3.1c-0.6,0.6-1.6,0.8-2.4,0.8c-0.8,0-1.7-0.2-2.2-0.6
				l0.3-0.9c0.4,0.3,1.1,0.5,2,0.5c1.2,0,2.2-0.6,2.2-2.3v-0.7h0c-0.4,0.6-1.1,1.1-2.1,1.1c-1.7,0-2.8-1.4-2.8-3.3
				c0-2.3,1.5-3.6,3-3.6c1.2,0,1.8,0.6,2.1,1.2h0l0.1-1H116.5z M115.2,47.7c0-0.2,0-0.4-0.1-0.6c-0.2-0.7-0.8-1.3-1.7-1.3
				c-1.2,0-2,1-2,2.5c0,1.3,0.7,2.4,2,2.4c0.7,0,1.4-0.5,1.7-1.2c0.1-0.2,0.1-0.4,0.1-0.6V47.7z"/>
			<path class="st13" d="M121.7,51.8L122,49h-1.1v-0.8h1.3l0.3-2h-1.2v-0.8h1.3l0.4-2.6h0.8l-0.3,2.6h1.4l0.4-2.6h0.8l-0.3,2.6h1.1
				v0.8h-1.3l-0.2,2h1.2V49h-1.3l-0.4,2.7h-0.8l0.4-2.7h-1.4l-0.4,2.7H121.7z M124.4,48.2l0.3-2h-1.4l-0.3,2H124.4z"/>
			<path class="st13" d="M137.2,48.4c0,2.5-1.7,3.6-3.3,3.6c-1.8,0-3.2-1.3-3.2-3.4c0-2.2,1.5-3.6,3.3-3.6
				C135.9,44.9,137.2,46.3,137.2,48.4z M131.9,48.4c0,1.5,0.8,2.6,2,2.6c1.2,0,2-1.1,2-2.6c0-1.1-0.6-2.6-2-2.6
				C132.6,45.8,131.9,47.2,131.9,48.4z"/>
			<path class="st13" d="M138.9,51.8V46H138v-0.9h0.9v-0.3c0-0.9,0.2-1.8,0.8-2.3c0.5-0.4,1.1-0.6,1.6-0.6c0.4,0,0.8,0.1,1,0.2
				l-0.2,0.9c-0.2-0.1-0.4-0.2-0.8-0.2c-1,0-1.3,0.9-1.3,1.9v0.4h1.6V46h-1.6v5.8H138.9z"/>
			<path class="st13" d="M145.7,47.3c0-0.9,0-1.5-0.1-2.2h1.1l0.1,1.1h0c0.5-0.8,1.3-1.3,2.4-1.3c1.6,0,2.8,1.4,2.8,3.4
				c0,2.4-1.5,3.6-3,3.6c-0.9,0-1.7-0.4-2.1-1.1h0v3.6h-1.2V47.3z M146.9,49c0,0.2,0,0.3,0.1,0.5c0.2,0.8,1,1.4,1.8,1.4
				c1.3,0,2-1.1,2-2.6c0-1.3-0.7-2.5-2-2.5c-0.8,0-1.6,0.6-1.8,1.5c0,0.2-0.1,0.3-0.1,0.5V49z"/>
			<path class="st13" d="M157.3,51.8l-0.1-0.8h0c-0.4,0.5-1.1,1-2,1c-1.4,0-2-1-2-1.9c0-1.6,1.4-2.5,4-2.5v-0.1
				c0-0.6-0.2-1.5-1.5-1.5c-0.6,0-1.3,0.2-1.7,0.5l-0.3-0.8c0.6-0.4,1.4-0.6,2.2-0.6c2,0,2.5,1.4,2.5,2.7v2.5c0,0.6,0,1.1,0.1,1.6
				H157.3z M157.1,48.3c-1.3,0-2.8,0.2-2.8,1.5c0,0.8,0.5,1.2,1.1,1.2c0.9,0,1.4-0.6,1.6-1.1c0-0.1,0.1-0.3,0.1-0.4V48.3z"/>
		</g>
		<g class="st0">
			<path class="st13" d="M160.3,47.2c0-0.8,0-1.5-0.1-2.1h1.1l0,1.3h0.1c0.3-0.9,1-1.5,1.9-1.5c0.1,0,0.2,0,0.3,0v1.1
				c-0.1,0-0.2,0-0.4,0c-0.9,0-1.5,0.6-1.6,1.6c0,0.2-0.1,0.4-0.1,0.6v3.6h-1.2V47.2z"/>
		</g>
		<g class="st0">
			<path class="st13" d="M166.6,43.1v1.9h1.7V46h-1.7v3.6c0,0.8,0.2,1.3,0.9,1.3c0.3,0,0.6,0,0.7-0.1l0.1,0.9
				c-0.2,0.1-0.6,0.2-1.1,0.2c-0.6,0-1-0.2-1.3-0.5c-0.3-0.4-0.5-1-0.5-1.7V46h-1v-0.9h1v-1.6L166.6,43.1z"/>
			<path class="st13" d="M169.5,50.5c0.4,0.2,1,0.5,1.6,0.5c0.9,0,1.3-0.4,1.3-1c0-0.6-0.3-0.9-1.2-1.2c-1.2-0.4-1.8-1.1-1.8-1.9
				c0-1.1,0.9-2,2.3-2c0.7,0,1.3,0.2,1.6,0.4l-0.3,0.9c-0.3-0.2-0.7-0.4-1.4-0.4c-0.7,0-1.1,0.4-1.1,0.9c0,0.6,0.4,0.8,1.3,1.1
				c1.2,0.4,1.8,1,1.8,2c0,1.2-0.9,2-2.5,2c-0.7,0-1.4-0.2-1.9-0.5L169.5,50.5z"/>
		</g>
		<g class="st0">
			<path class="st13" d="M97.7,63.8c0-0.9,0-1.5-0.1-2.2h1.1l0.1,1.1h0c0.5-0.8,1.3-1.3,2.4-1.3c1.6,0,2.8,1.4,2.8,3.4
				c0,2.4-1.5,3.6-3,3.6c-0.9,0-1.7-0.4-2.1-1.1h0v3.6h-1.2V63.8z M98.9,65.6c0,0.2,0,0.3,0.1,0.5c0.2,0.8,1,1.4,1.8,1.4
				c1.3,0,2-1.1,2-2.6c0-1.3-0.7-2.5-2-2.5c-0.8,0-1.6,0.6-1.8,1.5c0,0.2-0.1,0.3-0.1,0.5V65.6z"/>
			<path class="st13" d="M106.2,65.2c0,1.6,1.1,2.3,2.3,2.3c0.9,0,1.4-0.2,1.9-0.3l0.2,0.9c-0.4,0.2-1.2,0.4-2.2,0.4
				c-2.1,0-3.3-1.4-3.3-3.4c0-2,1.2-3.6,3.1-3.6c2.2,0,2.8,1.9,2.8,3.2c0,0.2,0,0.4,0,0.6H106.2z M109.8,64.4c0-0.8-0.3-2-1.7-2
				c-1.2,0-1.8,1.1-1.9,2H109.8z"/>
			<path class="st13" d="M112.5,63.7c0-0.8,0-1.5-0.1-2.1h1.1l0,1.3h0.1c0.3-0.9,1-1.5,1.9-1.5c0.1,0,0.2,0,0.3,0v1.1
				c-0.1,0-0.2,0-0.4,0c-0.9,0-1.5,0.6-1.6,1.6c0,0.2-0.1,0.4-0.1,0.6v3.6h-1.2V63.7z"/>
			<path class="st13" d="M125.5,66.5c0,0.7,0,1.3,0.1,1.8h-1.1l-0.1-1.1h0c-0.3,0.5-1,1.2-2.2,1.2c-1.1,0-2.3-0.6-2.3-2.9v-3.9h1.2
				v3.7c0,1.3,0.4,2.1,1.5,2.1c0.8,0,1.4-0.6,1.6-1.1c0.1-0.2,0.1-0.4,0.1-0.6v-4.1h1.2V66.5z"/>
			<path class="st13" d="M127.4,67.1c0.4,0.2,1,0.5,1.6,0.5c0.9,0,1.3-0.4,1.3-1c0-0.6-0.3-0.9-1.2-1.2c-1.2-0.4-1.8-1.1-1.8-1.9
				c0-1.1,0.9-2,2.3-2c0.7,0,1.3,0.2,1.6,0.4l-0.3,0.9c-0.3-0.2-0.7-0.4-1.4-0.4c-0.7,0-1.1,0.4-1.1,0.9c0,0.6,0.4,0.8,1.3,1.1
				c1.2,0.4,1.8,1,1.8,2c0,1.2-0.9,2-2.5,2c-0.7,0-1.4-0.2-1.9-0.5L127.4,67.1z"/>
			<path class="st13" d="M133.7,65.2c0,1.6,1.1,2.3,2.3,2.3c0.9,0,1.4-0.2,1.9-0.3l0.2,0.9c-0.4,0.2-1.2,0.4-2.2,0.4
				c-2.1,0-3.3-1.4-3.3-3.4c0-2,1.2-3.6,3.1-3.6c2.2,0,2.8,1.9,2.8,3.2c0,0.2,0,0.4,0,0.6H133.7z M137.2,64.4c0-0.8-0.3-2-1.7-2
				c-1.2,0-1.8,1.1-1.9,2H137.2z"/>
			<path class="st13" d="M139.9,63.7c0-0.8,0-1.5-0.1-2.1h1.1l0,1.3h0.1c0.3-0.9,1-1.5,1.9-1.5c0.1,0,0.2,0,0.3,0v1.1
				c-0.1,0-0.2,0-0.4,0c-0.9,0-1.5,0.6-1.6,1.6c0,0.2-0.1,0.4-0.1,0.6v3.6h-1.2V63.7z"/>
			<path class="st13" d="M153.2,58.5v8.1c0,0.6,0,1.3,0.1,1.7h-1.1l-0.1-1.2h0c-0.4,0.7-1.2,1.3-2.3,1.3c-1.6,0-2.9-1.4-2.9-3.4
				c0-2.2,1.4-3.6,3-3.6c1,0,1.7,0.5,2,1h0v-4H153.2z M151.9,64.4c0-0.2,0-0.4-0.1-0.5c-0.2-0.8-0.8-1.4-1.8-1.4c-1.3,0-2,1.1-2,2.6
				c0,1.4,0.7,2.5,2,2.5c0.8,0,1.6-0.5,1.8-1.5c0-0.2,0.1-0.3,0.1-0.5V64.4z"/>
			<path class="st13" d="M155.8,65.2c0,1.6,1.1,2.3,2.3,2.3c0.9,0,1.4-0.2,1.9-0.3l0.2,0.9c-0.4,0.2-1.2,0.4-2.2,0.4
				c-2.1,0-3.3-1.4-3.3-3.4c0-2,1.2-3.6,3.1-3.6c2.2,0,2.8,1.9,2.8,3.2c0,0.2,0,0.4,0,0.6H155.8z M159.4,64.4c0-0.8-0.3-2-1.7-2
				c-1.2,0-1.8,1.1-1.9,2H159.4z"/>
			<path class="st13" d="M161.9,67.1c0.4,0.2,1,0.5,1.6,0.5c0.9,0,1.3-0.4,1.3-1c0-0.6-0.3-0.9-1.2-1.2c-1.2-0.4-1.8-1.1-1.8-1.9
				c0-1.1,0.9-2,2.3-2c0.7,0,1.3,0.2,1.6,0.4l-0.3,0.9c-0.3-0.2-0.7-0.4-1.4-0.4c-0.7,0-1.1,0.4-1.1,0.9c0,0.6,0.4,0.8,1.3,1.1
				c1.2,0.4,1.8,1,1.8,2c0,1.2-0.9,2-2.5,2c-0.7,0-1.4-0.2-1.9-0.5L161.9,67.1z"/>
			<path class="st13" d="M168.9,59.8c0,0.4-0.3,0.7-0.8,0.7c-0.4,0-0.7-0.3-0.7-0.7c0-0.4,0.3-0.8,0.8-0.8
				C168.6,59,168.9,59.4,168.9,59.8z M167.6,68.4v-6.7h1.2v6.7H167.6z"/>
		</g>
		<g class="st0">
			<path class="st13" d="M176.6,61.7c0,0.5-0.1,1-0.1,1.8v3.9c0,1.5-0.3,2.5-1,3.1c-0.6,0.6-1.6,0.8-2.4,0.8c-0.8,0-1.7-0.2-2.2-0.6
				l0.3-0.9c0.4,0.3,1.1,0.5,2,0.5c1.2,0,2.2-0.6,2.2-2.3v-0.7h0c-0.4,0.6-1.1,1.1-2.1,1.1c-1.7,0-2.8-1.4-2.8-3.3
				c0-2.3,1.5-3.6,3-3.6c1.2,0,1.8,0.6,2.1,1.2h0l0.1-1H176.6z M175.3,64.3c0-0.2,0-0.4-0.1-0.6c-0.2-0.7-0.8-1.3-1.7-1.3
				c-1.2,0-2,1-2,2.5c0,1.3,0.7,2.4,2,2.4c0.7,0,1.4-0.5,1.7-1.2c0.1-0.2,0.1-0.4,0.1-0.6V64.3z"/>
		</g>
		<g class="st0">
			<path class="st13" d="M178.4,63.5c0-0.7,0-1.3-0.1-1.8h1.1l0.1,1.1h0c0.3-0.6,1.1-1.3,2.2-1.3c0.9,0,2.4,0.6,2.4,2.8v4h-1.2v-3.9
				c0-1.1-0.4-2-1.5-2c-0.8,0-1.4,0.6-1.6,1.2c-0.1,0.2-0.1,0.4-0.1,0.6v4h-1.2V63.5z"/>
		</g>
		<line class="st14" x1="309.3" y1="284.7" x2="309.3" y2="278.7"/>
		<line class="st15" x1="309.3" y1="273.8" x2="309.3" y2="9"/>
		<line class="st14" x1="309.3" y1="6.5" x2="309.3" y2="0.5"/>
		<g class="st0">
			<path class="st16" d="M220.6,46.9c0-0.7,0-1.3-0.1-1.8h1.1l0.1,1.1h0c0.4-0.6,1-1.2,2.1-1.2c0.9,0,1.6,0.6,1.9,1.3h0
				c0.2-0.4,0.5-0.7,0.7-0.9c0.4-0.3,0.8-0.5,1.5-0.5c0.9,0,2.2,0.6,2.2,2.9v3.9H229V48c0-1.3-0.5-2.1-1.5-2.1
				c-0.7,0-1.2,0.5-1.4,1.1c-0.1,0.2-0.1,0.4-0.1,0.6v4.1h-1.2v-4c0-1.1-0.5-1.8-1.4-1.8c-0.8,0-1.3,0.6-1.5,1.2
				c-0.1,0.2-0.1,0.4-0.1,0.6v4h-1.2V46.9z"/>
			<path class="st16" d="M235.9,51.8l-0.1-0.8h0c-0.4,0.5-1.1,1-2,1c-1.4,0-2-1-2-1.9c0-1.6,1.4-2.5,4-2.5v-0.1
				c0-0.6-0.2-1.5-1.5-1.5c-0.6,0-1.3,0.2-1.7,0.5l-0.3-0.8c0.6-0.4,1.4-0.6,2.2-0.6c2,0,2.5,1.4,2.5,2.7v2.5c0,0.6,0,1.1,0.1,1.6
				H235.9z M235.7,48.3c-1.3,0-2.8,0.2-2.8,1.5c0,0.8,0.5,1.2,1.1,1.2c0.9,0,1.4-0.6,1.6-1.1c0-0.1,0.1-0.3,0.1-0.4V48.3z"/>
			<path class="st16" d="M239.4,45.1l1,1.4c0.2,0.4,0.5,0.7,0.7,1.1h0c0.2-0.4,0.4-0.7,0.7-1.1l0.9-1.4h1.3l-2.3,3.2l2.3,3.5h-1.4
				l-1-1.5c-0.3-0.4-0.5-0.8-0.7-1.2h0c-0.2,0.4-0.5,0.8-0.7,1.2l-1,1.5h-1.3l2.4-3.4l-2.3-3.3H239.4z"/>
			<path class="st16" d="M248.4,51.8l0.4-2.7h-1.1v-0.8h1.3l0.3-2H248v-0.8h1.3l0.4-2.6h0.8l-0.3,2.6h1.4l0.4-2.6h0.8l-0.3,2.6h1.1
				v0.8h-1.3l-0.2,2h1.2V49h-1.3l-0.4,2.7h-0.8l0.4-2.7h-1.4l-0.4,2.7H248.4z M251.2,48.2l0.3-2H250l-0.3,2H251.2z"/>
			<path class="st16" d="M264,48.4c0,2.5-1.7,3.6-3.3,3.6c-1.8,0-3.2-1.3-3.2-3.4c0-2.2,1.5-3.6,3.3-3.6
				C262.7,44.9,264,46.3,264,48.4z M258.7,48.4c0,1.5,0.8,2.6,2,2.6c1.2,0,2-1.1,2-2.6c0-1.1-0.6-2.6-2-2.6
				C259.3,45.8,258.7,47.2,258.7,48.4z"/>
			<path class="st16" d="M265.7,51.8V46h-0.9v-0.9h0.9v-0.3c0-0.9,0.2-1.8,0.8-2.3c0.5-0.4,1.1-0.6,1.6-0.6c0.4,0,0.8,0.1,1,0.2
				l-0.2,0.9c-0.2-0.1-0.4-0.2-0.8-0.2c-1,0-1.3,0.9-1.3,1.9v0.4h1.6V46h-1.6v5.8H265.7z"/>
			<path class="st16" d="M272.5,47.3c0-0.9,0-1.5-0.1-2.2h1.1l0.1,1.1h0c0.5-0.8,1.3-1.3,2.4-1.3c1.6,0,2.8,1.4,2.8,3.4
				c0,2.4-1.5,3.6-3,3.6c-0.9,0-1.7-0.4-2.1-1.1h0v3.6h-1.2V47.3z M273.7,49c0,0.2,0,0.3,0.1,0.5c0.2,0.8,1,1.4,1.8,1.4
				c1.3,0,2-1.1,2-2.6c0-1.3-0.7-2.5-2-2.5c-0.8,0-1.6,0.6-1.8,1.5c0,0.2-0.1,0.3-0.1,0.5V49z"/>
			<path class="st16" d="M284.1,51.8l-0.1-0.8h0c-0.4,0.5-1.1,1-2,1c-1.4,0-2-1-2-1.9c0-1.6,1.4-2.5,4-2.5v-0.1
				c0-0.6-0.2-1.5-1.5-1.5c-0.6,0-1.3,0.2-1.7,0.5l-0.3-0.8c0.6-0.4,1.4-0.6,2.2-0.6c2,0,2.5,1.4,2.5,2.7v2.5c0,0.6,0,1.1,0.1,1.6
				H284.1z M283.9,48.3c-1.3,0-2.8,0.2-2.8,1.5c0,0.8,0.5,1.2,1.1,1.2c0.9,0,1.4-0.6,1.6-1.1c0-0.1,0.1-0.3,0.1-0.4V48.3z"/>
		</g>
		<g class="st0">
			<path class="st16" d="M287,47.2c0-0.8,0-1.5-0.1-2.1h1.1l0,1.3h0.1c0.3-0.9,1-1.5,1.9-1.5c0.1,0,0.2,0,0.3,0v1.1
				c-0.1,0-0.2,0-0.4,0c-0.9,0-1.5,0.6-1.6,1.6c0,0.2-0.1,0.4-0.1,0.6v3.6H287V47.2z"/>
		</g>
		<g class="st0">
			<path class="st16" d="M293.4,43.1v1.9h1.7V46h-1.7v3.6c0,0.8,0.2,1.3,0.9,1.3c0.3,0,0.6,0,0.7-0.1l0.1,0.9
				c-0.2,0.1-0.6,0.2-1.1,0.2c-0.6,0-1-0.2-1.3-0.5c-0.3-0.4-0.5-1-0.5-1.7V46h-1v-0.9h1v-1.6L293.4,43.1z"/>
			<path class="st16" d="M296.3,50.5c0.4,0.2,1,0.5,1.6,0.5c0.9,0,1.3-0.4,1.3-1c0-0.6-0.3-0.9-1.2-1.2c-1.2-0.4-1.8-1.1-1.8-1.9
				c0-1.1,0.9-2,2.3-2c0.7,0,1.3,0.2,1.6,0.4l-0.3,0.9c-0.3-0.2-0.7-0.4-1.4-0.4c-0.7,0-1.1,0.4-1.1,0.9c0,0.6,0.4,0.8,1.3,1.1
				c1.2,0.4,1.8,1,1.8,2c0,1.2-0.9,2-2.5,2c-0.7,0-1.4-0.2-1.9-0.5L296.3,50.5z"/>
		</g>
		<g class="st0">
			<path class="st16" d="M216.4,63.8c0-0.9,0-1.5-0.1-2.2h1.1l0.1,1.1h0c0.5-0.8,1.3-1.3,2.4-1.3c1.6,0,2.8,1.4,2.8,3.4
				c0,2.4-1.5,3.6-3,3.6c-0.9,0-1.7-0.4-2.1-1.1h0v3.6h-1.2V63.8z M217.6,65.6c0,0.2,0,0.3,0.1,0.5c0.2,0.8,1,1.4,1.8,1.4
				c1.3,0,2-1.1,2-2.6c0-1.3-0.7-2.5-2-2.5c-0.8,0-1.6,0.6-1.8,1.5c0,0.2-0.1,0.3-0.1,0.5V65.6z"/>
			<path class="st16" d="M225,65.2c0,1.6,1.1,2.3,2.3,2.3c0.9,0,1.4-0.2,1.9-0.3l0.2,0.9c-0.4,0.2-1.2,0.4-2.2,0.4
				c-2.1,0-3.3-1.4-3.3-3.4c0-2,1.2-3.6,3.1-3.6c2.2,0,2.8,1.9,2.8,3.2c0,0.2,0,0.4,0,0.6H225z M228.5,64.4c0-0.8-0.3-2-1.7-2
				c-1.2,0-1.8,1.1-1.9,2H228.5z"/>
			<path class="st16" d="M231.2,63.7c0-0.8,0-1.5-0.1-2.1h1.1l0,1.3h0.1c0.3-0.9,1-1.5,1.9-1.5c0.1,0,0.2,0,0.3,0v1.1
				c-0.1,0-0.2,0-0.4,0c-0.9,0-1.5,0.6-1.6,1.6c0,0.2-0.1,0.4-0.1,0.6v3.6h-1.2V63.7z"/>
			<path class="st16" d="M244.3,66.5c0,0.7,0,1.3,0.1,1.8h-1.1l-0.1-1.1h0c-0.3,0.5-1,1.2-2.2,1.2c-1.1,0-2.3-0.6-2.3-2.9v-3.9h1.2
				v3.7c0,1.3,0.4,2.1,1.5,2.1c0.8,0,1.4-0.6,1.6-1.1c0.1-0.2,0.1-0.4,0.1-0.6v-4.1h1.2V66.5z"/>
			<path class="st16" d="M246.1,67.1c0.4,0.2,1,0.5,1.6,0.5c0.9,0,1.3-0.4,1.3-1c0-0.6-0.3-0.9-1.2-1.2c-1.2-0.4-1.8-1.1-1.8-1.9
				c0-1.1,0.9-2,2.3-2c0.7,0,1.3,0.2,1.6,0.4l-0.3,0.9c-0.3-0.2-0.7-0.4-1.4-0.4c-0.7,0-1.1,0.4-1.1,0.9c0,0.6,0.4,0.8,1.3,1.1
				c1.2,0.4,1.8,1,1.8,2c0,1.2-0.9,2-2.5,2c-0.7,0-1.4-0.2-1.9-0.5L246.1,67.1z"/>
			<path class="st16" d="M252.4,65.2c0,1.6,1.1,2.3,2.3,2.3c0.9,0,1.4-0.2,1.9-0.3l0.2,0.9c-0.4,0.2-1.2,0.4-2.2,0.4
				c-2.1,0-3.3-1.4-3.3-3.4c0-2,1.2-3.6,3.1-3.6c2.2,0,2.8,1.9,2.8,3.2c0,0.2,0,0.4,0,0.6H252.4z M256,64.4c0-0.8-0.3-2-1.7-2
				c-1.2,0-1.8,1.1-1.9,2H256z"/>
			<path class="st16" d="M258.7,63.7c0-0.8,0-1.5-0.1-2.1h1.1l0,1.3h0.1c0.3-0.9,1-1.5,1.9-1.5c0.1,0,0.2,0,0.3,0v1.1
				c-0.1,0-0.2,0-0.4,0c-0.9,0-1.5,0.6-1.6,1.6c0,0.2-0.1,0.4-0.1,0.6v3.6h-1.2V63.7z"/>
			<path class="st16" d="M271.9,58.5v8.1c0,0.6,0,1.3,0.1,1.7h-1.1l-0.1-1.2h0c-0.4,0.7-1.2,1.3-2.3,1.3c-1.6,0-2.9-1.4-2.9-3.4
				c0-2.2,1.4-3.6,3-3.6c1,0,1.7,0.5,2,1h0v-4H271.9z M270.7,64.4c0-0.2,0-0.4-0.1-0.5c-0.2-0.8-0.8-1.4-1.8-1.4c-1.3,0-2,1.1-2,2.6
				c0,1.4,0.7,2.5,2,2.5c0.8,0,1.6-0.5,1.8-1.5c0-0.2,0.1-0.3,0.1-0.5V64.4z"/>
			<path class="st16" d="M274.6,65.2c0,1.6,1.1,2.3,2.3,2.3c0.9,0,1.4-0.2,1.9-0.3l0.2,0.9c-0.4,0.2-1.2,0.4-2.2,0.4
				c-2.1,0-3.3-1.4-3.3-3.4c0-2,1.2-3.6,3.1-3.6c2.2,0,2.8,1.9,2.8,3.2c0,0.2,0,0.4,0,0.6H274.6z M278.2,64.4c0-0.8-0.3-2-1.7-2
				c-1.2,0-1.8,1.1-1.9,2H278.2z"/>
			<path class="st16" d="M280.7,67.1c0.4,0.2,1,0.5,1.6,0.5c0.9,0,1.3-0.4,1.3-1c0-0.6-0.3-0.9-1.2-1.2c-1.2-0.4-1.8-1.1-1.8-1.9
				c0-1.1,0.9-2,2.3-2c0.7,0,1.3,0.2,1.6,0.4l-0.3,0.9c-0.3-0.2-0.7-0.4-1.4-0.4c-0.7,0-1.1,0.4-1.1,0.9c0,0.6,0.4,0.8,1.3,1.1
				c1.2,0.4,1.8,1,1.8,2c0,1.2-0.9,2-2.5,2c-0.7,0-1.4-0.2-1.9-0.5L280.7,67.1z"/>
			<path class="st16" d="M287.7,59.8c0,0.4-0.3,0.7-0.8,0.7c-0.4,0-0.7-0.3-0.7-0.7c0-0.4,0.3-0.8,0.8-0.8
				C287.4,59,287.7,59.4,287.7,59.8z M286.3,68.4v-6.7h1.2v6.7H286.3z"/>
		</g>
		<g class="st0">
			<path class="st16" d="M295.3,61.7c0,0.5-0.1,1-0.1,1.8v3.9c0,1.5-0.3,2.5-1,3.1c-0.6,0.6-1.6,0.8-2.4,0.8c-0.8,0-1.7-0.2-2.2-0.6
				l0.3-0.9c0.4,0.3,1.1,0.5,2,0.5c1.2,0,2.2-0.6,2.2-2.3v-0.7h0c-0.4,0.6-1.1,1.1-2.1,1.1c-1.7,0-2.8-1.4-2.8-3.3
				c0-2.3,1.5-3.6,3-3.6c1.2,0,1.8,0.6,2.1,1.2h0l0.1-1H295.3z M294.1,64.3c0-0.2,0-0.4-0.1-0.6c-0.2-0.7-0.8-1.3-1.7-1.3
				c-1.2,0-2,1-2,2.5c0,1.3,0.7,2.4,2,2.4c0.7,0,1.4-0.5,1.7-1.2c0.1-0.2,0.1-0.4,0.1-0.6V64.3z"/>
		</g>
		<g class="st0">
			<path class="st16" d="M297.2,63.5c0-0.7,0-1.3-0.1-1.8h1.1l0.1,1.1h0c0.3-0.6,1.1-1.3,2.2-1.3c0.9,0,2.4,0.6,2.4,2.8v4h-1.2v-3.9
				c0-1.1-0.4-2-1.5-2c-0.8,0-1.4,0.6-1.6,1.2c-0.1,0.2-0.1,0.4-0.1,0.6v4h-1.2V63.5z"/>
		</g>
	</g>
</g>
</svg>
