<?xml version="1.0" encoding="utf-8"?>
<!-- Generator: Adobe Illustrator 24.2.1, SVG Export Plug-In . SVG Version: 6.00 Build 0)  -->
<svg version="1.1" id="Layer_1" xmlns="http://www.w3.org/2000/svg" xmlns:xlink="http://www.w3.org/1999/xlink" x="0px" y="0px"
	 viewBox="0 0 59.5 64.9" style="enable-background:new 0 0 59.5 64.9;" xml:space="preserve">
<style type="text/css">
	.st0{fill:#FFFFFF;stroke:#000000;stroke-miterlimit:10;}
	.st1{fill:none;stroke:#000000;stroke-miterlimit:10;}
	.st2{fill:none;stroke:#000000;stroke-width:0.5;stroke-miterlimit:10;}
</style>
<path class="st0" d="M47,37.7c0,14.8-10.4,26.8-23.2,26.8S0.5,52.5,0.5,37.7s10.4-12.8,23.2-12.8S47,22.9,47,37.7z"/>
<path class="st1" d="M44.7,28.8C55,31.9,61.1,41.6,58.4,50.3C55.7,59,45.7,64,35.5,60.8"/>
<path class="st1" d="M47,35c6.9,2.1,9.5,7.8,7.7,13.7c-1.8,5.9-7.3,9.8-14.3,7.6"/>
<path class="st1" d="M19.2,26.3c-0.7-0.6-2-1.8-2.8-3.6c-0.4-1-1.2-2.7-0.8-4.7c0.3-1.6,1-1.8,2.2-4.1c0.1-0.2,1-2.2,1.3-4
	c0.5-3.2-1-6.2-2.2-8"/>
<path class="st1" d="M21.1,24.9c-0.6-0.3-2.2-1.4-3-3.5c-0.2-0.5-0.7-2-0.2-3.6c0.3-1,0.9-1.6,1.3-2c2.7-3.2,2.1-8.6,2.1-9.1
	c-0.3-2.8-1.6-4.9-2.6-6.3"/>
<line class="st2" x1="18.7" y1="0.5" x2="16.8" y2="2"/>
<line class="st2" x1="21" y1="24.8" x2="19.2" y2="26.3"/>
<path class="st1" d="M31.3,26.2c-0.7-0.6-2-1.8-2.8-3.6c-0.4-1-1.2-2.7-0.8-4.7c0.3-1.6,1-1.8,2.2-4.1c0.1-0.2,1-2.2,1.3-4
	c0.5-3.2-1-6.2-2.2-8"/>
<path class="st1" d="M33.2,24.8c-0.6-0.3-2.2-1.4-3-3.5c-0.2-0.5-0.7-2-0.2-3.6c0.3-1,0.9-1.6,1.3-2c2.7-3.2,2.1-8.6,2.1-9.1
	c-0.3-2.8-1.6-4.9-2.6-6.3"/>
<line class="st2" x1="30.8" y1="0.3" x2="28.9" y2="1.8"/>
<line class="st2" x1="33.1" y1="24.6" x2="31.3" y2="26.2"/>
</svg>
