<svg xmlns="http://www.w3.org/2000/svg" width="105.02" height="107.93" viewBox="0 0 105.02 107.93"><g id="Layer_2" data-name="Layer 2"><g id="separated"><path d="M102.06,60.13a17.71,17.71,0,0,0-9.67-7.45,43.62,43.62,0,0,0-10.53-2c0-3.07,0-4.93,0-4.93H56c6.41-3.65,7.2-7.76,7.21-11.38,0-10.15-15.31-7.91-18.33-15.85C41.57,9.93,60.64,1.64,59.19,1.13c-18-6.26-32.87,15-29.27,25.13,2.25,6.32,14.36,6.05,15.25,12.09.38,2.54-1.4,5.09-4,7.43H36.43c1.29-2.2,2-4.29,1.42-5.91C35.6,33,27.74,36.67,24.32,31.74c-3.71-5.35,2.36-12.19,1.44-12.2C15.58,19.4,13.69,32.69,17.91,39c2.62,3.92,5.74,2.92,7.57,6.79H0S-.53,63.14,2.82,79.43C5.23,91.13,10.71,102.27,15,106a17.69,17.69,0,0,0,2.63,1.89H64.23A17.69,17.69,0,0,0,66.86,106c4.28-3.77,9.83-14.91,12.24-26.61a135.81,135.81,0,0,0,2.3-17.25c.61,0,1.23.11,1.84.18l.2,0c.44.07.89.13,1.33.21a32.42,32.42,0,0,1,4.94,1.32l.1.06c.33.18.67.35,1,.54l.22.15c.2.23.51.47.72.67a2.75,2.75,0,0,1,.19.28c.2.31.39.63.57.95l.2.39a8.37,8.37,0,0,0,.44,1.2c.12.45.21.91.32,1.36v0c0,.06,0,.12,0,.17a16.29,16.29,0,0,1,0,2.42l0,.36c-.08.4-.15.8-.24,1.19-.19.79-.46,1.55-.72,2.32l0,.06a.77.77,0,0,0-.07.16c-.2.41-.41.82-.63,1.22-.38.68-.81,1.33-1.25,2,0,.06-.1.13-.16.19-.28.33-.58.66-.89,1s-.61.61-.93.89l-.32.29A6,6,0,0,0,85.82,85a5.86,5.86,0,0,0,.58,4.43c1.54,2.39,5.28,4,7.87,2.06A26,26,0,0,0,105,71.62,20.87,20.87,0,0,0,102.06,60.13Z" style="fill:#231f20"/></g></g></svg>