<?xml version="1.0" encoding="utf-8"?>
<!-- Generator: Adobe Illustrator 24.2.3, SVG Export Plug-In . SVG Version: 6.00 Build 0)  -->
<svg version="1.1"
	 id="svg1325" inkscape:version="0.43" sodipodi:docbase="C:\Documents and Settings\cenek\Dokumenty\wiki\Elektro" sodipodi:docname="triakCSN.svg" sodipodi:version="0.32" xmlns:cc="http://web.resource.org/cc/" xmlns:dc="http://purl.org/dc/elements/1.1/" xmlns:inkscape="http://www.inkscape.org/namespaces/inkscape" xmlns:rdf="http://www.w3.org/1999/02/22-rdf-syntax-ns#" xmlns:sodipodi="http://inkscape.sourceforge.net/DTD/sodipodi-0.dtd" xmlns:svg="http://www.w3.org/2000/svg"
	 xmlns="http://www.w3.org/2000/svg" xmlns:xlink="http://www.w3.org/1999/xlink" x="0px" y="0px" viewBox="0 0 200 300"
	 style="enable-background:new 0 0 200 300;" xml:space="preserve">
<style type="text/css">
	.st0{fill:none;stroke:#000000;stroke-width:3;stroke-linecap:round;stroke-miterlimit:14.1731;}
	.st1{font-family:'ArialMT';}
	.st2{font-size:16px;}
</style>
<sodipodi:namedview  bordercolor="#666666" borderopacity="1.0" id="base" inkscape:current-layer="svg1325" inkscape:cx="85" inkscape:cy="130" inkscape:pageopacity="0.0" inkscape:pageshadow="2" inkscape:window-height="1005" inkscape:window-width="1280" inkscape:window-x="-4" inkscape:window-y="-4" inkscape:zoom="2.2817792" pagecolor="#ffffff">
	</sodipodi:namedview>
<g id="g1452" transform="matrix(3.543286,0,0,3.543286,-268.0112,-284.5774)">
	<line id="line1454" class="st0" x1="114.9" y1="116.6" x2="87.3" y2="116.6"/>
</g>
<g id="g1456" transform="matrix(3.543286,0,0,3.543286,-268.0112,-284.5774)">
	<line id="line1458" class="st0" x1="101.1" y1="116.6" x2="94.3" y2="128.5"/>
</g>
<g id="g1460" transform="matrix(3.543286,0,0,3.543286,-268.0112,-284.5774)">
	<line id="line1462" class="st0" x1="87.3" y1="116.6" x2="94.3" y2="128.5"/>
</g>
<g id="g1464" transform="matrix(3.543286,0,0,3.543286,-268.0112,-284.5774)">
	<line id="line1466" class="st0" x1="114.9" y1="128.5" x2="108.1" y2="116.6"/>
</g>
<g id="g1468" transform="matrix(3.543286,0,0,3.543286,-268.0112,-284.5774)">
	<line id="line1470" class="st0" x1="87.3" y1="128.5" x2="114.9" y2="128.5"/>
</g>
<g id="g1472" transform="matrix(3.543286,0,0,3.543286,-268.0112,-284.5774)">
	<line id="line1474" class="st0" x1="101.1" y1="128.5" x2="108.1" y2="116.6"/>
</g>
<g id="g1476" transform="matrix(3.543286,0,0,3.543286,-268.0112,-284.5774)">
	<line id="line1478" class="st0" x1="114.9" y1="140.4" x2="108.1" y2="128.5"/>
</g>
<g id="g1480" transform="matrix(3.543286,0,0,3.543286,-268.0112,-284.5774)">
	<line id="line1482" class="st0" x1="114.9" y1="140.4" x2="128.7" y2="140.4"/>
</g>
<g id="g1484" transform="matrix(3.543286,0,0,3.543286,-268.0112,-284.5774)">
	<line id="line1486" class="st0" x1="101.1" y1="128.5" x2="101.1" y2="156.3"/>
</g>
<g id="g1488" transform="matrix(3.543286,0,0,3.543286,-268.0112,-284.5774)">
	<line id="line1490" class="st0" x1="101.1" y1="88.8" x2="101.1" y2="116.6"/>
</g>
<text transform="matrix(1 0 0 1 79.3241 19.0789)" class="st1 st2">A2</text>
<text transform="matrix(1 0 0 1 80.6388 290.7967)" class="st1 st2">A1</text>
<text transform="matrix(1 0 0 1 152.9525 204.8992)" class="st1 st2">Gate</text>
</svg>
